<svg width="131" height="40" viewBox="0 0 131 40" fill="none" xmlns="http://www.w3.org/2000/svg">
<path d="M46.7348 5.97417L47.2999 19.0699H46.6366L37.7469 9.70744L38.1509 19.0699H36.3953L35.8302 5.97417H36.4934L45.3882 15.4539L44.9791 5.97417H46.7348ZM54.6922 9.10152C55.2514 9.10152 55.823 9.23834 56.407 9.51198C57.0035 9.77259 57.5199 10.1375 57.9563 10.6066L57.8998 9.29698H59.4994L59.9211 19.0699H58.3215L58.2498 17.4085C57.9342 17.9298 57.4922 18.3858 56.9239 18.7767C56.3685 19.1677 55.7202 19.3631 54.9789 19.3631C54.1466 19.3631 53.3768 19.1546 52.6696 18.7377C51.9618 18.3076 51.3835 17.7148 50.9347 16.959C50.4989 16.2032 50.2597 15.3302 50.2169 14.3398C50.1703 13.2583 50.3316 12.3266 50.7011 11.5448C51.0835 10.7629 51.6233 10.1635 52.3206 9.74653C53.0173 9.31652 53.8078 9.10152 54.6922 9.10152ZM55.0522 10.6652C54.35 10.6652 53.7593 10.8411 53.2803 11.1929C52.8013 11.5448 52.4374 12.0008 52.1885 12.5611C51.952 13.1084 51.8475 13.7013 51.8751 14.3398C51.9021 14.9653 52.0571 15.5452 52.3403 16.0794C52.6229 16.6006 53.005 17.0176 53.4867 17.3304C53.9813 17.6431 54.5408 17.7995 55.165 17.7995C55.7633 17.7995 56.2897 17.6431 56.7444 17.3304C57.1991 17.0176 57.5512 16.5876 57.8006 16.0403C58.0496 15.48 58.1526 14.8545 58.1098 14.1639L58.0093 12.2875C57.5843 11.7793 57.1314 11.3819 56.6509 11.0952C56.1834 10.8085 55.6505 10.6652 55.0522 10.6652ZM65.3862 6.48236L65.5077 9.29698H68.3557L68.4207 10.802H65.5726L65.8197 16.529C65.8372 16.9329 65.955 17.2522 66.1732 17.4867C66.3914 17.7213 66.7151 17.8385 67.1442 17.8385C67.5344 17.8385 67.8575 17.7929 68.1137 17.7017C68.3693 17.5975 68.5921 17.4867 68.7821 17.3694L68.8386 18.679C68.5875 18.8875 68.315 19.0504 68.0209 19.1677C67.7404 19.298 67.3531 19.3631 66.8589 19.3631C66.0266 19.3631 65.3852 19.1155 64.9346 18.6204C64.4965 18.1122 64.2595 17.4411 64.2235 16.6072L63.973 10.802H62.1003L62.0801 10.3329C62.7049 10.0462 63.2179 9.57713 63.6189 8.9256C64.0194 8.26104 64.3614 7.44663 64.6449 6.48236H65.3862ZM79.2408 9.29698L79.4905 15.0826C79.5276 15.9426 79.3776 16.6853 79.0405 17.3108C78.7033 17.9363 78.2299 18.4184 77.6203 18.7572C77.0107 19.096 76.3157 19.2654 75.5354 19.2654C74.7552 19.2654 74.0456 19.096 73.4067 18.7572C72.7679 18.4184 72.2529 17.9363 71.8618 17.3108C71.4706 16.6853 71.2565 15.9426 71.2194 15.0826L70.9697 9.29698H72.6278L72.8775 15.0826C72.9141 15.9296 73.1893 16.5811 73.7031 17.0372C74.2294 17.4802 74.8177 17.7017 75.468 17.7017C76.1182 17.7017 76.6809 17.4802 77.1559 17.0372C77.6435 16.5811 77.8689 15.9296 77.8324 15.0826L77.5827 9.29698H79.2408ZM83.8641 9.29698L83.9484 11.2516C84.2975 10.6 84.7301 10.0788 85.2465 9.68789C85.7628 9.29698 86.3006 9.10152 86.8598 9.10152C87.2369 9.10152 87.5779 9.16667 87.8826 9.29698L87.9627 11.1538C87.5359 10.9063 87.1144 10.7825 86.6982 10.7825C86.035 10.7825 85.5054 11.017 85.1095 11.4861C84.7266 11.9552 84.3671 12.5155 84.0311 13.1671L84.2858 19.0699H82.6862L82.2645 9.29698H83.8641ZM93.9409 9.10152C94.5002 9.10152 95.0718 9.23834 95.6558 9.51198C96.2523 9.77259 96.7687 10.1375 97.2051 10.6066L97.1486 9.29698H98.7482L99.1699 19.0699H97.5703L97.4986 17.4085C97.183 17.9298 96.741 18.3858 96.1726 18.7767C95.6173 19.1677 94.969 19.3631 94.2277 19.3631C93.3954 19.3631 92.6256 19.1546 91.9184 18.7377C91.2105 18.3076 90.6322 17.7148 90.1835 16.959C89.7477 16.2032 89.5085 15.3302 89.4657 14.3398C89.4191 13.2583 89.5804 12.3266 89.9498 11.5448C90.3323 10.7629 90.8721 10.1635 91.5694 9.74653C92.2661 9.31652 93.0566 9.10152 93.9409 9.10152ZM94.301 10.6652C93.5988 10.6652 93.0081 10.8411 92.5291 11.1929C92.0501 11.5448 91.6862 12.0008 91.4372 12.5611C91.2008 13.1084 91.0963 13.7013 91.1238 14.3398C91.1508 14.9653 91.3059 15.5452 91.5891 16.0794C91.8717 16.6006 92.2538 17.0176 92.7355 17.3304C93.2301 17.6431 93.7896 17.7995 94.4138 17.7995C95.0121 17.7995 95.5385 17.6431 95.9932 17.3304C96.4479 17.0176 96.7999 16.5876 97.0494 16.0403C97.2984 15.48 97.4014 14.8545 97.3586 14.1639L97.2581 12.2875C96.833 11.7793 96.3802 11.3819 95.8997 11.0952C95.4321 10.8085 94.8993 10.6652 94.301 10.6652Z" fill="white"/>
<path d="M46.7348 5.97417H47.7335L47.6904 4.97342H46.6916L46.7348 5.97417ZM47.2999 19.0699L47.3431 20.0707H48.3418L48.2987 19.0699H47.2999ZM46.6366 19.0699L45.9263 19.7427L46.2377 20.0707H46.6798L46.6366 19.0699ZM37.7469 9.70744L38.4573 9.03465L36.6363 7.11689L36.7481 9.70744H37.7469ZM38.1509 19.0699L38.1941 20.0707H39.1929L39.1497 19.0699H38.1509ZM36.3953 19.0699H35.3965L35.4397 20.0707H36.4385L36.3953 19.0699ZM35.8302 5.97417L35.787 4.97342H34.7882L34.8314 5.97417H35.8302ZM36.4934 5.97417L37.2081 5.30598L36.8961 4.97342H36.4502L36.4934 5.97417ZM45.3882 15.4539L44.6735 16.1221L46.4998 18.0685L46.387 15.4539H45.3882ZM44.9791 5.97417L44.9359 4.97342H43.9371L43.9803 5.97417H44.9791ZM45.736 5.97417L46.3011 19.0699H48.2987L47.7335 5.97417H45.736ZM47.2567 18.0692H46.5934L46.6798 20.0707H47.3431L47.2567 18.0692ZM47.347 18.3971L38.4573 9.03465L37.0366 10.3802L45.9263 19.7427L47.347 18.3971ZM36.7481 9.70744L37.1522 19.0699H39.1497L38.7457 9.70744H36.7481ZM38.1077 18.0692H36.3521L36.4385 20.0707H38.1941L38.1077 18.0692ZM37.394 19.0699L36.8289 5.97417H34.8314L35.3965 19.0699H37.394ZM35.8733 6.97492H36.5366L36.4502 4.97342H35.787L35.8733 6.97492ZM35.7787 6.64236L44.6735 16.1221L46.1029 14.7857L37.2081 5.30598L35.7787 6.64236ZM46.387 15.4539L45.9779 5.97417H43.9803L44.3894 15.4539H46.387ZM45.0223 6.97492H46.7779L46.6916 4.97342H44.9359L45.0223 6.97492ZM56.407 9.51198L56.0158 10.4151L56.0282 10.421L56.0408 10.4265L56.407 9.51198ZM57.9563 10.6066L57.2385 11.2714L59.0687 13.2387L58.9551 10.6066H57.9563ZM57.8998 9.29698L57.8566 8.29623H56.8578L56.901 9.29698H57.8998ZM59.4994 9.29698H60.4982L60.455 8.29623H59.4562L59.4994 9.29698ZM59.9211 19.0699L59.9643 20.0707H60.9631L60.9199 19.0699H59.9211ZM58.3215 19.0699H57.3228L57.3659 20.0707H58.3647L58.3215 19.0699ZM58.2498 17.4085H59.2486L59.1029 14.0326L57.3889 16.8631L58.2498 17.4085ZM56.9239 18.7767L56.3339 17.944L56.3255 17.9499L56.9239 18.7767ZM52.6696 18.7377L52.1783 19.5873L52.1903 19.5944L52.6696 18.7377ZM50.9347 16.959L50.0741 17.4308L50.081 17.4424L50.9347 16.959ZM50.7011 11.5448L49.7994 11.0738L49.7939 11.0854L50.7011 11.5448ZM52.3206 9.74653L52.8602 10.6116L52.8715 10.6047L52.3206 9.74653ZM52.1885 12.5611L51.272 12.122L51.2681 12.1309L52.1885 12.5611ZM52.3403 16.0794L51.4615 16.5182L51.4663 16.527L52.3403 16.0794ZM53.4867 17.3304L52.9685 18.1631L52.9794 18.1699L53.4867 17.3304ZM57.8006 16.0403L58.7133 16.4879L58.7171 16.4795L57.8006 16.0403ZM58.1098 14.1639L57.1115 14.1743L57.112 14.1828L58.1098 14.1639ZM58.0093 12.2875L59.0076 12.2771L58.9892 11.9336L58.7643 11.6648L58.0093 12.2875ZM56.6509 11.0952L56.1559 11.9425L56.1669 11.9491L56.6509 11.0952ZM54.7353 10.1023C55.1269 10.1023 55.5505 10.1971 56.0158 10.4151L56.7982 8.60882C56.0955 8.27956 55.3758 8.10077 54.649 8.10077L54.7353 10.1023ZM56.0408 10.4265C56.5078 10.6305 56.9035 10.9113 57.2385 11.2714L58.6741 9.94169C58.1363 9.36356 57.4992 8.91469 56.7732 8.59748L56.0408 10.4265ZM58.9551 10.6066L58.8986 9.29698H56.901L56.9575 10.6066H58.9551ZM57.943 10.2977H59.5426L59.4562 8.29623H57.8566L57.943 10.2977ZM58.5006 9.29698L58.9224 19.0699H60.9199L60.4982 9.29698H58.5006ZM59.8779 18.0692H58.2783L58.3647 20.0707H59.9643L59.8779 18.0692ZM59.3203 19.0699L59.2486 17.4085H57.2511L57.3228 19.0699H59.3203ZM57.3889 16.8631C57.151 17.256 56.8072 17.6186 56.3339 17.9441L57.5138 19.6094C58.1773 19.1531 58.7174 18.6035 59.1108 17.9539L57.3889 16.8631ZM56.3255 17.9499C55.9427 18.2194 55.4911 18.3624 54.9357 18.3624L55.0221 20.3639C55.9493 20.3639 56.7944 20.1159 57.5222 19.6036L56.3255 17.9499ZM54.9357 18.3624C54.2789 18.3624 53.6907 18.2004 53.1488 17.8809L52.1903 19.5944C53.063 20.1089 54.0143 20.3639 55.0221 20.3639L54.9357 18.3624ZM53.1608 17.8881C52.6109 17.554 52.1538 17.0911 51.7883 16.4755L50.081 17.4424C50.6131 18.3384 51.3126 19.0613 52.1783 19.5872L53.1608 17.8881ZM51.7952 16.4872C51.4553 15.8978 51.2525 15.1914 51.2157 14.3398H49.2182C49.2669 15.4689 49.5426 16.5087 50.0742 17.4307L51.7952 16.4872ZM51.2157 14.3398C51.1744 13.3821 51.3195 12.6151 51.6082 12.0041L49.7939 11.0854C49.3437 12.0381 49.1661 13.1345 49.2182 14.3398H51.2157ZM51.6026 12.0157C51.9105 11.3862 52.3301 10.9285 52.8602 10.6115L51.781 8.88153C50.9165 9.3985 50.2564 10.1396 49.7995 11.0738L51.6026 12.0157ZM52.8715 10.6047C53.4078 10.2737 54.0207 10.1023 54.7353 10.1023L54.649 8.10077C53.595 8.10077 52.6268 8.35939 51.7697 8.8884L52.8715 10.6047ZM55.0091 9.66444C54.1334 9.66444 53.3344 9.8867 52.6666 10.3771L53.894 12.0087C54.1843 11.7955 54.5666 11.6659 55.0954 11.6659L55.0091 9.66444ZM52.6666 10.3771C52.0522 10.8285 51.5859 11.4155 51.272 12.122L53.1049 13.0003C53.2889 12.5861 53.5505 12.261 53.894 12.0087L52.6666 10.3771ZM51.2681 12.1309C50.9705 12.8197 50.8427 13.5606 50.8763 14.3398H52.8738C52.8524 13.8421 52.9335 13.3971 53.1088 12.9914L51.2681 12.1309ZM50.8763 14.3398C50.9095 15.1092 51.1022 15.8401 51.4615 16.5182L53.219 15.6407C53.0121 15.2502 52.8946 14.8214 52.8738 14.3398H50.8763ZM51.4663 16.527C51.8303 17.1985 52.333 17.7504 52.9686 18.163L54.0048 16.4977C53.677 16.2849 53.4154 16.0028 53.2143 15.6319L51.4663 16.527ZM52.9794 18.1699C53.6551 18.5971 54.4088 18.8002 55.2082 18.8002L55.1219 16.7987C54.6728 16.7987 54.3076 16.689 53.994 16.4908L52.9794 18.1699ZM55.2082 18.8002C55.9905 18.8002 56.7101 18.5924 57.3344 18.163L56.1544 16.4977C55.8694 16.6938 55.536 16.7987 55.1219 16.7987L55.2082 18.8002ZM57.3344 18.163C57.9413 17.7455 58.399 17.1772 58.7133 16.4879L56.888 15.5928C56.7033 15.998 56.4568 16.2897 56.1544 16.4977L57.3344 18.163ZM58.7171 16.4795C59.0359 15.7619 59.1592 14.9769 59.1076 14.145L57.112 14.1828C57.1461 14.7322 57.0633 15.1981 56.8842 15.6012L58.7171 16.4795ZM59.1081 14.1535L59.0076 12.2771L57.0111 12.2979L57.1116 14.1743L59.1081 14.1535ZM58.7643 11.6648C58.276 11.081 57.7346 10.599 57.1349 10.2413L56.1669 11.9491C56.5283 12.1647 56.8925 12.4776 57.2544 12.9102L58.7643 11.6648ZM57.1459 10.2479C56.4967 9.84992 55.7735 9.66444 55.0091 9.66444L55.0954 11.6659C55.5275 11.6659 55.87 11.7671 56.1559 11.9425L57.1459 10.2479ZM65.3862 6.48236H66.385L66.3418 5.48161H65.343L65.3862 6.48236ZM65.5077 9.29698H64.5089L64.5521 10.2977H65.5509L65.5077 9.29698ZM68.3557 9.29698H69.3545L69.3113 8.29623H68.3126L68.3557 9.29698ZM68.4207 10.802L68.4639 11.8028H69.4626L69.4195 10.802H68.4207ZM65.5726 10.802L65.5294 9.80126H64.5307L64.5738 10.802H65.5726ZM68.1137 17.7017L68.4844 18.6463L68.5048 18.639L68.5247 18.6309L68.1137 17.7017ZM68.7821 17.3694H69.7809L69.7046 15.6019L68.2312 16.5113L68.7821 17.3694ZM68.8386 18.679L69.4963 19.4605L69.8582 19.16L69.8374 18.679H68.8386ZM68.0209 19.1677L67.6167 18.2357L67.5922 18.2455L67.5683 18.2566L68.0209 19.1677ZM64.9346 18.6204L64.1899 19.2552L64.1992 19.266L64.2088 19.2766L64.9346 18.6204ZM63.973 10.802H64.9718L64.9286 9.80126H63.9298L63.973 10.802ZM62.1003 10.802H61.1015L61.1447 11.8028H62.1435L62.1003 10.802ZM62.0801 10.3329L61.6316 9.41996L61.0533 9.68524L61.0813 10.3329H62.0801ZM63.6189 8.9256L64.4763 9.47688L64.4809 9.46926L63.6189 8.9256ZM64.6449 6.48236L64.6017 5.48161H63.8849L63.6849 6.16206L64.6449 6.48236ZM64.3874 6.48236L64.5089 9.29698H66.5064L66.385 6.48236H64.3874ZM65.5509 10.2977H68.3989L68.3126 8.29623H65.4645L65.5509 10.2977ZM67.357 9.29698L67.4219 10.802H69.4195L69.3545 9.29698H67.357ZM68.3775 9.80126H65.5294L65.6158 11.8028H68.4639L68.3775 9.80126ZM64.5738 10.802L64.821 16.529H66.8185L66.5714 10.802H64.5738ZM64.821 16.529C64.8459 17.1057 65.0224 17.6862 65.4554 18.1516L66.891 16.8219C66.8876 16.8182 66.8285 16.7602 66.8185 16.529H64.821ZM65.4554 18.1516C65.938 18.6703 66.5831 18.8393 67.1874 18.8393L67.1011 16.8378C66.9743 16.8378 66.908 16.8201 66.8835 16.8112C66.8652 16.8046 66.8759 16.8056 66.891 16.8219L65.4554 18.1516ZM67.1874 18.8393C67.647 18.8393 68.0903 18.7866 68.4844 18.6463L67.743 16.7572C67.6248 16.7992 67.4217 16.8378 67.1011 16.8378L67.1874 18.8393ZM68.5247 18.6309C68.8183 18.5112 69.0897 18.3777 69.333 18.2276L68.2312 16.5113C68.0945 16.5957 67.9203 16.6838 67.7027 16.7725L68.5247 18.6309ZM67.7833 17.3694L67.8399 18.679H69.8374L69.7809 17.3694H67.7833ZM68.181 17.8976C68.0029 18.0454 67.8153 18.1565 67.6167 18.2357L68.4251 20.0996C68.8146 19.9442 69.1721 19.7296 69.4963 19.4605L68.181 17.8976ZM67.5683 18.2566C67.4671 18.3036 67.2402 18.3624 66.8157 18.3624L66.9021 20.3639C67.4659 20.3639 68.0137 20.2923 68.4735 20.0787L67.5683 18.2566ZM66.8157 18.3624C66.1883 18.3624 65.8602 18.1838 65.6604 17.9642L64.2088 19.2766C64.9101 20.0473 65.8649 20.3639 66.9021 20.3639L66.8157 18.3624ZM65.6794 17.9856C65.4332 17.7 65.251 17.2731 65.2223 16.6072H63.2247C63.268 17.6091 63.5599 18.5244 64.1899 19.2552L65.6794 17.9856ZM65.2223 16.6072L64.9718 10.802H62.9742L63.2247 16.6072H65.2223ZM63.9298 9.80126H62.0571L62.1435 11.8028H64.0162L63.9298 9.80126ZM63.0991 10.802L63.0788 10.3329H61.0813L61.1015 10.802H63.0991ZM62.5285 11.2459C63.3421 10.8726 63.9893 10.268 64.4763 9.47686L62.7616 8.37435C62.4464 8.88627 62.0678 9.21982 61.6316 9.41996L62.5285 11.2459ZM64.4809 9.46926C64.9334 8.71849 65.3046 7.82444 65.605 6.80267L63.6849 6.16206C63.4183 7.06882 63.1055 7.8036 62.7569 8.38194L64.4809 9.46926ZM64.6881 7.48311H65.4294L65.343 5.48161H64.6017L64.6881 7.48311ZM79.2408 9.29698H80.2396L80.1964 8.29623H79.1977L79.2408 9.29698ZM70.9697 9.29698L70.9265 8.29623H69.9278L69.9709 9.29698H70.9697ZM72.6278 9.29698H73.6266L73.5834 8.29623H72.5847L72.6278 9.29698ZM73.7031 17.0372L73.0583 17.7733L73.0687 17.7825L73.0794 17.7915L73.7031 17.0372ZM77.1559 17.0372L77.8541 17.783L77.8552 17.782L77.1559 17.0372ZM77.5827 9.29698L77.5395 8.29623H76.5408L76.5839 9.29698H77.5827ZM78.2421 9.29698L78.4917 15.0826H80.4893L80.2396 9.29698H78.2421ZM78.4917 15.0826C78.5226 15.7988 78.3963 16.3606 78.156 16.8066L79.9249 17.8151C80.3589 17.01 80.5326 16.0864 80.4893 15.0826H78.4917ZM78.156 16.8066C77.9026 17.2766 77.5562 17.6274 77.1066 17.8773L78.134 19.6372C78.9037 19.2094 79.504 18.5959 79.9249 17.8151L78.156 16.8066ZM77.1066 17.8773C76.6535 18.1291 76.1233 18.2646 75.4923 18.2646L75.5786 20.2661C76.5082 20.2661 77.3679 20.0629 78.134 19.6372L77.1066 17.8773ZM75.4923 18.2646C74.8613 18.2646 74.3194 18.1291 73.8445 17.8773L72.969 19.6372C73.7718 20.0629 74.649 20.2661 75.5786 20.2661L75.4923 18.2646ZM73.8445 17.8773C73.3734 17.6274 72.9967 17.2766 72.7027 16.8066L71.0208 17.8151C71.5091 18.5959 72.1624 19.2094 72.969 19.6372L73.8445 17.8773ZM72.7027 16.8066C72.4239 16.3606 72.2491 15.7988 72.2182 15.0826H70.2206C70.2639 16.0864 70.5174 17.01 71.0208 17.8151L72.7027 16.8066ZM72.2182 15.0826L71.9685 9.29698H69.9709L70.2206 15.0826H72.2182ZM71.0129 10.2977H72.671L72.5847 8.29623H70.9265L71.0129 10.2977ZM71.6291 9.29698L71.8787 15.0826H73.8763L73.6266 9.29698H71.6291ZM71.8787 15.0826C71.924 16.1321 72.2784 17.0811 73.0583 17.7733L74.348 16.3011C74.1002 16.0811 73.9041 15.727 73.8763 15.0826H71.8787ZM73.0794 17.7915C73.7872 18.3874 74.6106 18.7025 75.5112 18.7025L75.4248 16.701C75.0249 16.701 74.6717 16.573 74.3269 16.2828L73.0794 17.7915ZM75.5112 18.7025C76.4125 18.7025 77.2068 18.3866 77.8541 17.783L76.4578 16.2914C76.1549 16.5738 75.824 16.701 75.4248 16.701L75.5112 18.7025ZM77.8552 17.782C78.5928 17.0919 78.8768 16.1401 78.8312 15.0826H76.8336C76.8611 15.719 76.6941 16.0703 76.4567 16.2924L77.8552 17.782ZM78.8312 15.0826L78.5815 9.29698H76.5839L76.8336 15.0826H78.8312ZM77.6259 10.2977H79.284L79.1977 8.29623H77.5395L77.6259 10.2977ZM83.8641 9.29698H84.8629L84.8197 8.29623H83.8209L83.8641 9.29698ZM83.9484 11.2516H82.9497L83.1102 14.9717L84.8341 11.7537L83.9484 11.2516ZM87.8826 9.29698H88.8814L88.8531 8.64084L88.2412 8.37922L87.8826 9.29698ZM87.9627 11.1538L87.4899 12.0143L89.0374 12.9119L88.9615 11.1538H87.9627ZM85.1095 11.4861L84.3343 10.8213L84.3293 10.8271L84.3245 10.8331L85.1095 11.4861ZM84.0311 13.1671L83.1385 12.6781L83.021 12.9059L83.0323 13.1671H84.0311ZM84.2858 19.0699L84.329 20.0707H85.3278L85.2846 19.0699H84.2858ZM82.6862 19.0699H81.6874L81.7306 20.0707H82.7294L82.6862 19.0699ZM82.2645 9.29698L82.2213 8.29623H81.2225L81.2657 9.29698H82.2645ZM82.8653 9.29698L82.9497 11.2516H84.9472L84.8629 9.29698H82.8653ZM84.8341 11.7537C85.1278 11.2054 85.4767 10.7942 85.8711 10.4955L84.6218 8.88026C83.9836 9.36346 83.4672 9.99464 83.0628 10.7495L84.8341 11.7537ZM85.8711 10.4955C86.2527 10.2066 86.5923 10.1023 86.903 10.1023L86.8166 8.10077C86.0088 8.10077 85.2729 8.38733 84.6218 8.88026L85.8711 10.4955ZM86.903 10.1023C87.1643 10.1023 87.3657 10.1471 87.524 10.2147L88.2412 8.37922C87.79 8.18627 87.3095 8.10077 86.8166 8.10077L86.903 10.1023ZM86.8838 9.29698L86.9639 11.1538H88.9615L88.8814 9.29698H86.8838ZM88.4355 10.2933C87.8765 9.96911 87.2781 9.78172 86.655 9.78172L86.7414 11.7832C86.9506 11.7832 87.1952 11.8434 87.4899 12.0143L88.4355 10.2933ZM86.655 9.78172C85.7255 9.78172 84.9222 10.1247 84.3343 10.8213L85.8847 12.151C86.0886 11.9094 86.3445 11.7832 86.7414 11.7832L86.655 9.78172ZM84.3245 10.8331C83.8927 11.362 83.4987 11.9797 83.1385 12.6781L84.9236 13.656C85.2355 13.0514 85.5604 12.5484 85.8945 12.1391L84.3245 10.8331ZM83.0323 13.1671L83.287 19.0699H85.2846L85.0299 13.1671H83.0323ZM84.2426 18.0692H82.643L82.7294 20.0707H84.329L84.2426 18.0692ZM83.685 19.0699L83.2633 9.29698H81.2657L81.6874 19.0699H83.685ZM82.3077 10.2977H83.9073L83.8209 8.29623H82.2213L82.3077 10.2977ZM95.6558 9.51198L95.2646 10.4151L95.277 10.421L95.2896 10.4265L95.6558 9.51198ZM97.2051 10.6066L96.4873 11.2714L98.3175 13.2387L98.2039 10.6066H97.2051ZM97.1486 9.29698L97.1054 8.29623H96.1066L96.1498 9.29698H97.1486ZM98.7482 9.29698H99.747L99.7038 8.29623H98.705L98.7482 9.29698ZM99.1699 19.0699L99.2131 20.0707H100.212L100.169 19.0699H99.1699ZM97.5703 19.0699H96.5715L96.6147 20.0707H97.6135L97.5703 19.0699ZM97.4986 17.4085H98.4974L98.3517 14.0326L96.6377 16.8631L97.4986 17.4085ZM96.1726 18.7767L95.5827 17.944L95.5743 17.9499L96.1726 18.7767ZM91.9184 18.7377L91.4271 19.5873L91.4391 19.5944L91.9184 18.7377ZM90.1835 16.959L89.3229 17.4308L89.3298 17.4424L90.1835 16.959ZM89.9498 11.5448L89.0482 11.0738L89.0427 11.0854L89.9498 11.5448ZM91.5694 9.74653L92.109 10.6116L92.1203 10.6047L91.5694 9.74653ZM91.4372 12.5611L90.5208 12.122L90.5169 12.1309L91.4372 12.5611ZM91.5891 16.0794L90.7103 16.5182L90.715 16.527L91.5891 16.0794ZM92.7355 17.3304L92.2173 18.1631L92.2282 18.1699L92.7355 17.3304ZM97.0494 16.0403L97.9621 16.4879L97.9659 16.4795L97.0494 16.0403ZM97.3586 14.1639L96.3603 14.1743L96.3608 14.1828L97.3586 14.1639ZM97.2581 12.2875L98.2564 12.2771L98.238 11.9336L98.0131 11.6648L97.2581 12.2875ZM95.8997 11.0952L95.4047 11.9425L95.4157 11.9491L95.8997 11.0952ZM93.9841 10.1023C94.3757 10.1023 94.7993 10.1971 95.2646 10.4151L96.047 8.60882C95.3443 8.27956 94.6246 8.10077 93.8978 8.10077L93.9841 10.1023ZM95.2896 10.4265C95.7566 10.6305 96.1523 10.9113 96.4873 11.2714L97.9229 9.94169C97.3851 9.36356 96.748 8.91469 96.022 8.59748L95.2896 10.4265ZM98.2039 10.6066L98.1474 9.29698H96.1498L96.2063 10.6066H98.2039ZM97.1918 10.2977H98.7914L98.705 8.29623H97.1054L97.1918 10.2977ZM97.7494 9.29698L98.1711 19.0699H100.169L99.747 9.29698H97.7494ZM99.1267 18.0692H97.5271L97.6135 20.0707H99.2131L99.1267 18.0692ZM98.5691 19.0699L98.4974 17.4085H96.4998L96.5715 19.0699H98.5691ZM96.6377 16.8631C96.3998 17.256 96.056 17.6186 95.5827 17.9441L96.7626 19.6094C97.426 19.1531 97.9662 18.6035 98.3596 17.9539L96.6377 16.8631ZM95.5743 17.9499C95.1914 18.2194 94.7399 18.3624 94.1845 18.3624L94.2709 20.3639C95.198 20.3639 96.0432 20.1159 96.771 19.6036L95.5743 17.9499ZM94.1845 18.3624C93.5277 18.3624 92.9395 18.2004 92.3976 17.8809L91.4391 19.5944C92.3117 20.1089 93.2631 20.3639 94.2709 20.3639L94.1845 18.3624ZM92.4096 17.8881C91.8596 17.554 91.4026 17.0911 91.0371 16.4755L89.3298 17.4424C89.8619 18.3384 90.5614 19.0613 91.4271 19.5872L92.4096 17.8881ZM91.044 16.4872C90.7041 15.8978 90.5012 15.1914 90.4645 14.3398H88.4669C88.5157 15.4689 88.7913 16.5087 89.323 17.4307L91.044 16.4872ZM90.4645 14.3398C90.4232 13.3821 90.5683 12.6151 90.857 12.0041L89.0427 11.0854C88.5925 12.0381 88.4149 13.1345 88.4669 14.3398H90.4645ZM90.8514 12.0157C91.1593 11.3862 91.5789 10.9285 92.109 10.6115L91.0298 8.88153C90.1653 9.3985 89.5052 10.1396 89.0482 11.0738L90.8514 12.0157ZM92.1203 10.6047C92.6566 10.2737 93.2695 10.1023 93.9841 10.1023L93.8978 8.10077C92.8437 8.10077 91.8756 8.35939 91.0185 8.8884L92.1203 10.6047ZM94.2578 9.66444C93.3822 9.66444 92.5832 9.8867 91.9154 10.3771L93.1428 12.0087C93.4331 11.7955 93.8153 11.6659 94.3442 11.6659L94.2578 9.66444ZM91.9154 10.3771C91.3009 10.8285 90.8347 11.4155 90.5208 12.122L92.3537 13.0003C92.5377 12.5861 92.7993 12.261 93.1428 12.0087L91.9154 10.3771ZM90.5169 12.1309C90.2193 12.8197 90.0914 13.5606 90.1251 14.3398H92.1226C92.1011 13.8421 92.1822 13.3971 92.3576 12.9914L90.5169 12.1309ZM90.1251 14.3398C90.1583 15.1092 90.351 15.8401 90.7103 16.5182L92.4678 15.6407C92.2609 15.2502 92.1434 14.8214 92.1226 14.3398H90.1251ZM90.715 16.527C91.0791 17.1985 91.5818 17.7504 92.2174 18.163L93.2535 16.4977C92.9258 16.2849 92.6642 16.0028 92.4631 15.6319L90.715 16.527ZM92.2282 18.1699C92.9039 18.5971 93.6576 18.8002 94.457 18.8002L94.3706 16.7987C93.9216 16.7987 93.5564 16.689 93.2428 16.4908L92.2282 18.1699ZM94.457 18.8002C95.2393 18.8002 95.9589 18.5924 96.5831 18.163L95.4032 16.4977C95.1182 16.6938 94.7848 16.7987 94.3706 16.7987L94.457 18.8002ZM96.5831 18.163C97.1901 17.7455 97.6478 17.1772 97.9621 16.4879L96.1368 15.5928C95.9521 15.998 95.7056 16.2897 95.4032 16.4977L96.5831 18.163ZM97.9659 16.4795C98.2847 15.7619 98.408 14.9769 98.3564 14.145L96.3608 14.1828C96.3949 14.7322 96.3121 15.1981 96.133 15.6012L97.9659 16.4795ZM98.3569 14.1535L98.2564 12.2771L96.2599 12.2979L96.3603 14.1743L98.3569 14.1535ZM98.0131 11.6648C97.5248 11.081 96.9834 10.599 96.3836 10.2413L95.4157 11.9491C95.7771 12.1647 96.1413 12.4776 96.5031 12.9102L98.0131 11.6648ZM96.3946 10.2479C95.7455 9.84992 95.0223 9.66444 94.2578 9.66444L94.3442 11.6659C94.7763 11.6659 95.1188 11.7671 95.4047 11.9425L96.3946 10.2479Z" fill="black" fill-opacity="0.1"/>
<path d="M17.7051 20.9371L18.2699 34.0329H16.5142L16.1054 24.5531L12.2537 28.8728H11.7855L7.4636 24.5531L7.87248 34.0329H6.11682L5.55197 20.9371H6.09818L11.9361 26.9377L17.1589 20.9371H17.7051ZM25.6624 24.0645C26.2216 24.0645 26.7932 24.2013 27.3773 24.4749C27.9737 24.7355 28.4901 25.1004 28.9265 25.5695L28.87 24.2599H30.4697L30.8912 34.0329H29.2916L29.2199 32.3715C28.9043 32.8927 28.4623 33.3488 27.8939 33.7397C27.3386 34.1306 26.6902 34.3261 25.949 34.3261C25.1166 34.3261 24.3469 34.1176 23.6396 33.7006C22.9318 33.2706 22.3535 32.6777 21.9048 31.9219C21.469 31.1661 21.2298 30.2931 21.1871 29.3028C21.1404 28.2212 21.3018 27.2895 21.6712 26.5077C22.0537 25.7259 22.5935 25.1265 23.2908 24.7095C23.9875 24.2795 24.7781 24.0645 25.6624 24.0645ZM26.0225 25.6281C25.3202 25.6281 24.7296 25.804 24.2505 26.1559C23.7715 26.5077 23.4076 26.9638 23.1586 27.5241C22.9221 28.0714 22.8177 28.6643 22.8452 29.3028C22.8722 29.9282 23.0272 30.5081 23.3104 31.0424C23.593 31.5636 23.9751 31.9806 24.4567 32.2933C24.9514 32.606 25.5109 32.7624 26.1351 32.7624C26.7333 32.7624 27.2598 32.606 27.7145 32.2933C28.1692 31.9806 28.5213 31.5505 28.7708 31.0033C29.0197 30.4429 29.1228 29.8175 29.08 29.1269L28.9795 27.2504C28.5545 26.7423 28.1017 26.3448 27.6211 26.0581C27.1536 25.7715 26.6207 25.6281 26.0225 25.6281ZM35.3855 24.2599L35.4521 25.804C35.6489 25.5434 35.9043 25.2828 36.2182 25.0222C36.5315 24.7486 36.8858 24.5205 37.2811 24.3381C37.6894 24.1557 38.1146 24.0645 38.5568 24.0645C39.22 24.0645 39.8312 24.2143 40.3904 24.514C40.9489 24.8007 41.4037 25.2437 41.7547 25.8431C42.1051 26.4295 42.2997 27.1723 42.3385 28.0714L42.5956 34.0329H40.996L40.7261 28.2277C40.6896 27.3808 40.4732 26.7357 40.0769 26.2927C39.6937 25.8497 39.1184 25.6281 38.3511 25.6281C37.8309 25.6281 37.3192 25.8236 36.8158 26.2145C36.3249 26.5924 35.8954 27.0354 35.5271 27.5436L35.807 34.0329H34.2074L33.7859 24.2599H35.3855ZM49.2078 24.0645C49.767 24.0645 50.3386 24.2013 50.9227 24.4749C51.5191 24.7355 52.0355 25.1004 52.4719 25.5695L52.4154 24.2599H54.015L54.4366 34.0329H52.837L52.7653 32.3715C52.4497 32.8927 52.0077 33.3488 51.4393 33.7397C50.8839 34.1306 50.2356 34.3261 49.4943 34.3261C48.662 34.3261 47.8923 34.1176 47.185 33.7006C46.4772 33.2706 45.8989 32.6777 45.4502 31.9219C45.0144 31.1661 44.7752 30.2931 44.7325 29.3028C44.6858 28.2212 44.8472 27.2895 45.2166 26.5077C45.5991 25.7259 46.1389 25.1265 46.8362 24.7095C47.5329 24.2795 48.3235 24.0645 49.2078 24.0645ZM49.5679 25.6281C48.8656 25.6281 48.275 25.804 47.7959 26.1559C47.3169 26.5077 46.953 26.9638 46.704 27.5241C46.4675 28.0714 46.3631 28.6643 46.3906 29.3028C46.4176 29.9282 46.5726 30.5081 46.8558 31.0424C47.1384 31.5636 47.5205 31.9806 48.0021 32.2933C48.4968 32.606 49.0563 32.7624 49.6805 32.7624C50.2787 32.7624 50.8052 32.606 51.2599 32.2933C51.7146 31.9806 52.0667 31.5505 52.3162 31.0033C52.5651 30.4429 52.6682 29.8175 52.6254 29.1269L52.5249 27.2504C52.0999 26.7423 51.647 26.3448 51.1665 26.0581C50.699 25.7715 50.1661 25.6281 49.5679 25.6281ZM61.3414 24.0645C61.9006 24.0645 62.4722 24.2013 63.0562 24.4749C63.6527 24.7355 64.1691 25.1004 64.6055 25.5695L64.549 24.2599H66.1486L66.5617 33.8374C66.6118 34.9971 66.4193 35.9614 65.9842 36.7302C65.5492 37.499 64.9497 38.0724 64.1857 38.4503C63.4217 38.8281 62.578 39.0171 61.6547 39.0171C61.0565 39.0171 60.5397 38.9454 60.1043 38.8021C59.6826 38.6718 59.3176 38.5024 59.0095 38.2939C58.702 38.0984 58.4207 37.9095 58.1658 37.7271L58.0916 36.007C58.2928 36.1504 58.5543 36.3328 58.876 36.5543C59.2112 36.7889 59.6038 36.9973 60.0539 37.1798C60.5169 37.3622 61.028 37.4534 61.5873 37.4534C62.2245 37.4534 62.8047 37.3361 63.3277 37.1016C63.8508 36.867 64.2651 36.5217 64.5705 36.0657C64.876 35.6096 65.015 35.0623 64.9874 34.4238L64.8989 32.3715C64.5832 32.8927 64.1412 33.3488 63.5729 33.7397C63.0175 34.1306 62.3692 34.3261 61.6279 34.3261C60.7956 34.3261 60.0258 34.1176 59.3186 33.7006C58.6108 33.2706 58.0325 32.6777 57.5837 31.9219C57.148 31.1661 56.9088 30.2931 56.8661 29.3028C56.8194 28.2212 56.9808 27.2895 57.3502 26.5077C57.7327 25.7259 58.2725 25.1265 58.9698 24.7095C59.6665 24.2795 60.4571 24.0645 61.3414 24.0645ZM61.7023 25.6477C61 25.6477 60.4094 25.8236 59.9304 26.1754C59.4508 26.5142 59.0865 26.9638 58.8376 27.5241C58.6011 28.0714 58.4966 28.6643 58.5242 29.3028C58.5512 29.9282 58.7059 30.5016 58.9885 31.0228C59.2711 31.544 59.6532 31.961 60.1349 32.2737C60.6296 32.5865 61.189 32.7428 61.8132 32.7428C62.4115 32.7428 62.9379 32.5865 63.3926 32.2737C63.8473 31.961 64.1994 31.531 64.4489 30.9837C64.6984 30.4364 64.8017 29.8175 64.7589 29.1269L64.6585 27.2504C64.2334 26.7423 63.7809 26.3513 63.3009 26.0777C62.8334 25.791 62.3005 25.6477 61.7023 25.6477ZM73.475 24.0645C74.4764 24.0645 75.3177 24.273 75.9989 24.6899C76.6801 25.1069 77.1988 25.6737 77.5548 26.3904C77.9238 27.1071 78.1277 27.915 78.1665 28.8141L78.2078 29.7719H70.717C70.8186 30.3192 71.0289 30.8208 71.3476 31.2769C71.6664 31.733 72.0723 32.0978 72.5653 32.3715C73.0577 32.6321 73.616 32.7624 74.2403 32.7624C74.9425 32.7624 75.5917 32.5865 76.1878 32.2347C76.7833 31.8698 77.2798 31.4724 77.6774 31.0424L77.7329 32.7819C77.5604 33.0035 77.2974 33.238 76.944 33.4856C76.603 33.7201 76.2017 33.9156 75.7403 34.072C75.2924 34.2414 74.8149 34.3261 74.3077 34.3261C73.3194 34.3261 72.4314 34.0915 71.6439 33.6224C70.8564 33.1533 70.2249 32.5344 69.7496 31.7656C69.2867 30.9837 69.0353 30.1302 68.9954 29.205C68.9555 28.2799 69.1203 27.4264 69.4897 26.6445C69.8591 25.8627 70.3849 25.2372 71.0669 24.7681C71.7619 24.299 72.5646 24.0645 73.475 24.0645ZM73.5424 25.6281C72.7361 25.6281 72.0847 25.9018 71.5881 26.4491C71.0909 26.9833 70.7939 27.6348 70.697 28.4037H76.5687C76.4762 27.7652 76.2716 27.2439 75.9551 26.84C75.6515 26.436 75.2875 26.1363 74.8629 25.9409C74.4378 25.7324 73.9976 25.6281 73.5424 25.6281ZM82.2032 24.2599L82.2572 25.5109C82.5541 25.159 82.9367 24.8333 83.405 24.5336C83.8856 24.2208 84.4576 24.0645 85.1209 24.0645C85.8231 24.0645 86.4872 24.2339 87.113 24.5727C87.7383 24.8984 88.2279 25.3936 88.5816 26.0581C89.0132 25.5109 89.4872 25.0418 90.0035 24.6508C90.5198 24.2599 91.1356 24.0645 91.8509 24.0645C92.5142 24.0645 93.1384 24.2143 93.7235 24.514C94.3211 24.8007 94.8084 25.2437 95.1854 25.8431C95.5748 26.4295 95.7889 27.1723 95.8277 28.0714L96.0848 34.0329H94.4852L94.2153 28.2277C94.1788 27.3808 93.9299 26.7357 93.4686 26.2927C93.0203 25.8497 92.4125 25.6281 91.6453 25.6281C91.086 25.6281 90.6059 25.804 90.205 26.1559C89.804 26.5077 89.425 26.9182 89.0681 27.3873L89.3548 34.0329H87.7552L87.4853 28.2277C87.4487 27.3808 87.1998 26.7357 86.7386 26.2927C86.2903 25.8497 85.6825 25.6281 84.9152 25.6281C84.382 25.6281 83.9011 25.7845 83.4724 26.0972C83.0567 26.41 82.6764 26.7879 82.3313 27.2309L82.6247 34.0329H81.0251L80.6036 24.2599H82.2032ZM102.697 24.0645C103.698 24.0645 104.54 24.273 105.221 24.6899C105.902 25.1069 106.421 25.6737 106.777 26.3904C107.146 27.1071 107.35 27.915 107.389 28.8141L107.43 29.7719H99.939C100.041 30.3192 100.251 30.8208 100.57 31.2769C100.888 31.733 101.294 32.0978 101.787 32.3715C102.28 32.6321 102.838 32.7624 103.462 32.7624C104.165 32.7624 104.814 32.5865 105.41 32.2347C106.005 31.8698 106.502 31.4724 106.899 31.0424L106.955 32.7819C106.782 33.0035 106.519 33.238 106.166 33.4856C105.825 33.7201 105.424 33.9156 104.962 34.072C104.514 34.2414 104.037 34.3261 103.53 34.3261C102.541 34.3261 101.653 34.0915 100.866 33.6224C100.078 33.1533 99.447 32.5344 98.9716 31.7656C98.5088 30.9837 98.2574 30.1302 98.2175 29.205C98.1776 28.2799 98.3423 27.4264 98.7117 26.6445C99.0812 25.8627 99.6069 25.2372 100.289 24.7681C100.984 24.299 101.787 24.0645 102.697 24.0645ZM102.764 25.6281C101.958 25.6281 101.307 25.9018 100.81 26.4491C100.313 26.9833 100.016 27.6348 99.9191 28.4037H105.791C105.698 27.7652 105.494 27.2439 105.177 26.84C104.874 26.436 104.51 26.1363 104.085 25.9409C103.66 25.7324 103.22 25.6281 102.764 25.6281ZM111.425 24.2599L111.492 25.804C111.689 25.5434 111.944 25.2828 112.258 25.0222C112.571 24.7486 112.926 24.5205 113.321 24.3381C113.729 24.1557 114.154 24.0645 114.597 24.0645C115.26 24.0645 115.871 24.2143 116.43 24.514C116.989 24.8007 117.443 25.2437 117.794 25.8431C118.145 26.4295 118.339 27.1723 118.378 28.0714L118.635 34.0329H117.036L116.766 28.2277C116.729 27.3808 116.513 26.7357 116.117 26.2927C115.733 25.8497 115.158 25.6281 114.391 25.6281C113.871 25.6281 113.359 25.8236 112.856 26.2145C112.365 26.5924 111.935 27.0354 111.567 27.5436L111.847 34.0329H110.247L109.826 24.2599H111.425ZM123.808 21.4453L123.929 24.2599H126.778L126.842 25.765H123.994L124.241 31.4919C124.259 31.8959 124.377 32.2151 124.595 32.4497C124.813 32.6842 125.137 32.8015 125.566 32.8015C125.956 32.8015 126.279 32.7559 126.535 32.6647C126.791 32.5604 127.014 32.4497 127.204 32.3324L127.26 33.642C127.009 33.8504 126.737 34.0133 126.442 34.1306C126.162 34.2609 125.775 34.3261 125.28 34.3261C124.448 34.3261 123.807 34.0785 123.356 33.5833C122.918 33.0751 122.681 32.4041 122.645 31.5701L122.395 25.765H120.522L120.502 25.2959C121.127 25.0092 121.64 24.5401 122.041 23.8886C122.441 23.224 122.783 22.4096 123.067 21.4453H123.808Z" fill="white"/>
<path d="M17.7051 20.9371H18.7038L18.6607 19.9364H17.6619L17.7051 20.9371ZM18.2699 34.0329L18.3131 35.0336H19.3119L19.2687 34.0329H18.2699ZM16.5142 34.0329H15.5155L15.5586 35.0336H16.5574L16.5142 34.0329ZM16.1054 24.5531H17.1041L16.9949 22.0208L15.3469 23.869L16.1054 24.5531ZM12.2537 28.8728L12.2968 29.8735H12.7298L13.0121 29.5569L12.2537 28.8728ZM11.7855 28.8728L11.0946 29.5655L11.4027 29.8735H11.8286L11.7855 28.8728ZM7.4636 24.5531L8.15449 23.8603L6.35748 22.0642L6.46483 24.5531H7.4636ZM7.87248 34.0329L7.91565 35.0336H8.91443L8.87126 34.0329H7.87248ZM6.11682 34.0329H5.11804L5.16121 35.0336H6.15998L6.11682 34.0329ZM5.55197 20.9371L5.50881 19.9364H4.51003L4.5532 20.9371H5.55197ZM6.09818 20.9371L6.79955 20.255L6.48959 19.9364H6.05502L6.09818 20.9371ZM11.9361 26.9377L11.2347 27.6199L12.0062 28.4128L12.702 27.6134L11.9361 26.9377ZM17.1589 20.9371L17.1157 19.9364H16.6759L16.393 20.2614L17.1589 20.9371ZM16.7063 20.9371L17.2711 34.0329H19.2687L18.7038 20.9371H16.7063ZM18.2267 33.0321H16.4711L16.5574 35.0336H18.3131L18.2267 33.0321ZM17.513 34.0329L17.1041 24.5531H15.1066L15.5155 34.0329H17.513ZM15.3469 23.869L11.4952 28.1886L13.0121 29.5569L16.8638 25.2372L15.3469 23.869ZM12.2105 27.872H11.7423L11.8286 29.8735H12.2968L12.2105 27.872ZM12.4764 28.18L8.15449 23.8603L6.77272 25.2459L11.0946 29.5655L12.4764 28.18ZM6.46483 24.5531L6.87371 34.0329H8.87126L8.46238 24.5531H6.46483ZM7.82932 33.0321H6.07366L6.15998 35.0336H7.91565L7.82932 33.0321ZM7.1156 34.0329L6.55075 20.9371H4.5532L5.11804 34.0329H7.1156ZM5.59514 21.9379H6.14135L6.05502 19.9364H5.50881L5.59514 21.9379ZM5.39681 21.6193L11.2347 27.6199L12.6375 26.2556L6.79955 20.255L5.39681 21.6193ZM12.702 27.6134L17.9248 21.6128L16.393 20.2614L11.1702 26.262L12.702 27.6134ZM17.202 21.9379H17.7482L17.6619 19.9364H17.1157L17.202 21.9379ZM27.3773 24.4749L26.986 25.3781L26.9985 25.3839L27.0111 25.3894L27.3773 24.4749ZM28.9265 25.5695L28.2087 26.2344L30.0388 28.2017L29.9253 25.5695H28.9265ZM28.87 24.2599L28.8269 23.2592H27.8281L27.8713 24.2599H28.87ZM30.4697 24.2599H31.4684L31.4253 23.2592H30.4265L30.4697 24.2599ZM30.8912 34.0329L30.9343 35.0336H31.9331L31.89 34.0329H30.8912ZM29.2916 34.0329H28.2928L28.336 35.0336H29.3347L29.2916 34.0329ZM29.2199 32.3715H30.2187L30.0731 28.9956L28.359 31.8261L29.2199 32.3715ZM27.8939 33.7397L27.3039 32.907L27.2956 32.9128L27.8939 33.7397ZM23.6396 33.7006L23.1483 34.5502L23.1603 34.5573L23.6396 33.7006ZM21.9048 31.9219L21.0442 32.3937L21.0511 32.4054L21.9048 31.9219ZM21.6712 26.5077L20.7696 26.0367L20.7641 26.0483L21.6712 26.5077ZM23.2908 24.7095L23.8305 25.5746L23.8417 25.5676L23.2908 24.7095ZM23.1586 27.5241L22.2422 27.0849L22.2383 27.0938L23.1586 27.5241ZM23.3104 31.0424L22.4316 31.4811L22.4363 31.4899L23.3104 31.0424ZM24.4567 32.2933L23.9386 33.126L23.9494 33.1329L24.4567 32.2933ZM28.7708 31.0033L29.6834 31.4508L29.6872 31.4424L28.7708 31.0033ZM29.08 29.1269L28.0817 29.1373L28.0822 29.1457L29.08 29.1269ZM28.9795 27.2504L29.9778 27.24L29.9594 26.8966L29.7345 26.6277L28.9795 27.2504ZM27.6211 26.0581L27.1261 26.9055L27.1371 26.9121L27.6211 26.0581ZM25.7056 25.0652C26.0971 25.0652 26.5207 25.1601 26.986 25.3781L27.7685 23.5718C27.0658 23.2425 26.3461 23.0637 25.6192 23.0637L25.7056 25.0652ZM27.0111 25.3894C27.478 25.5934 27.8737 25.8743 28.2087 26.2344L29.6444 24.9046C29.1065 24.3265 28.4694 23.8776 27.7435 23.5604L27.0111 25.3894ZM29.9253 25.5695L29.8688 24.2599H27.8713L27.9278 25.5695H29.9253ZM28.9132 25.2607H30.5128L30.4265 23.2592H28.8269L28.9132 25.2607ZM29.4709 24.2599L29.8924 34.0329H31.89L31.4684 24.2599H29.4709ZM30.848 33.0321H29.2484L29.3347 35.0336H30.9343L30.848 33.0321ZM30.2904 34.0329L30.2187 32.3715H28.2211L28.2928 34.0329H30.2904ZM28.359 31.8261C28.1211 32.219 27.7772 32.5815 27.304 32.907L28.4838 34.5724C29.1473 34.116 29.6875 33.5664 30.0809 32.9169L28.359 31.8261ZM27.2956 32.9128C26.9127 33.1824 26.4612 33.3253 25.9058 33.3253L25.9921 35.3268C26.9193 35.3268 27.7644 35.0789 28.4922 34.5665L27.2956 32.9128ZM25.9058 33.3253C25.249 33.3253 24.6607 33.1634 24.1189 32.8439L23.1603 34.5573C24.033 35.0718 24.9843 35.3268 25.9921 35.3268L25.9058 33.3253ZM24.1309 32.8511C23.5809 32.517 23.1239 32.054 22.7584 31.4385L21.0511 32.4054C21.5831 33.3014 22.2827 34.0242 23.1483 34.5501L24.1309 32.8511ZM22.7653 31.4502C22.4254 30.8607 22.2226 30.1543 22.1858 29.3028H20.1883C20.237 30.4319 20.5126 31.4716 21.0443 32.3937L22.7653 31.4502ZM22.1858 29.3028C22.1445 28.345 22.2897 27.578 22.5784 26.9671L20.7641 26.0483C20.3139 27.0011 20.1363 28.0974 20.1883 29.3028H22.1858ZM22.5728 26.9786C22.8807 26.3492 23.3003 25.8915 23.8304 25.5745L22.7512 23.8445C21.8867 24.3615 21.2266 25.1026 20.7697 26.0368L22.5728 26.9786ZM23.8417 25.5676C24.378 25.2366 24.9909 25.0652 25.7056 25.0652L25.6192 23.0637C24.5652 23.0637 23.5971 23.3223 22.7399 23.8513L23.8417 25.5676ZM25.9793 24.6274C25.1036 24.6274 24.3046 24.8496 23.6369 25.3401L24.8642 26.9717C25.1545 26.7585 25.5368 26.6289 26.0656 26.6289L25.9793 24.6274ZM23.6369 25.3401C23.0224 25.7914 22.5561 26.3785 22.2422 27.0849L24.075 27.9633C24.2591 27.5491 24.5207 27.224 24.8642 26.9717L23.6369 25.3401ZM22.2383 27.0938C21.9407 27.7827 21.8128 28.5235 21.8464 29.3028H23.844C23.8225 28.805 23.9036 28.3601 24.0789 27.9543L22.2383 27.0938ZM21.8464 29.3028C21.8796 30.0721 22.0723 30.8031 22.4316 31.4811L24.1891 30.6036C23.9822 30.2131 23.8647 29.7843 23.844 29.3028H21.8464ZM22.4363 31.4899C22.8004 32.1614 23.303 32.7133 23.9386 33.126L24.9749 31.4606C24.6471 31.2478 24.3855 30.9657 24.1844 30.5948L22.4363 31.4899ZM23.9494 33.1329C24.6252 33.5601 25.3789 33.7631 26.1783 33.7631L26.0919 31.7616C25.6429 31.7616 25.2777 31.652 24.9641 31.4537L23.9494 33.1329ZM26.1783 33.7631C26.9606 33.7631 27.6801 33.5554 28.3044 33.126L27.1245 31.4606C26.8395 31.6567 26.5061 31.7616 26.0919 31.7616L26.1783 33.7631ZM28.3044 33.126C28.9114 32.7085 29.3691 32.1402 29.6834 31.4508L27.8581 30.5557C27.6734 30.9609 27.4269 31.2526 27.1245 31.4606L28.3044 33.126ZM29.6872 31.4424C30.006 30.7248 30.1293 29.9398 30.0778 29.108L28.0822 29.1457C28.1162 29.6951 28.0334 30.1611 27.8543 30.5641L29.6872 31.4424ZM30.0782 29.1164L29.9778 27.24L27.9813 27.2609L28.0817 29.1373L30.0782 29.1164ZM29.7345 26.6277C29.2463 26.044 28.7048 25.562 28.1051 25.2042L27.1371 26.9121C27.4985 27.1276 27.8627 27.4405 28.2245 27.8732L29.7345 26.6277ZM28.1161 25.2109C27.467 24.8129 26.7437 24.6274 25.9793 24.6274L26.0656 26.6289C26.4977 26.6289 26.8402 26.7301 27.1261 26.9054L28.1161 25.2109ZM35.3855 24.2599H36.3843L36.3411 23.2592H35.3423L35.3855 24.2599ZM35.4521 25.804H34.4533L34.5764 28.657L36.259 26.4292L35.4521 25.804ZM36.2182 25.0222L36.8758 25.8037L36.8848 25.7962L36.8936 25.7885L36.2182 25.0222ZM37.2811 24.3381L36.8412 23.4212L36.8307 23.4261L37.2811 24.3381ZM40.3904 24.514L39.9485 25.3918L39.9568 25.3962L39.9652 25.4005L40.3904 24.514ZM41.7547 25.8431L40.8977 26.321L40.9026 26.3291L41.7547 25.8431ZM42.5956 34.0329L42.6388 35.0336H43.6375L43.5944 34.0329H42.5956ZM40.996 34.0329L39.9974 34.0362L40.0437 35.0336H41.0392L40.996 34.0329ZM40.7261 28.2277L39.7273 28.2277L39.7275 28.2311L40.7261 28.2277ZM40.0769 26.2927L39.3334 26.9289L39.3392 26.9356L39.345 26.9421L40.0769 26.2927ZM36.8158 26.2145L37.4464 27.0176L37.4496 27.0151L36.8158 26.2145ZM35.5271 27.5436L34.7092 26.9335L34.5137 27.2033L34.5284 27.5436H35.5271ZM35.807 34.0329L35.8502 35.0336H36.849L36.8058 34.0329H35.807ZM34.2074 34.0329H33.2087L33.2518 35.0336H34.2506L34.2074 34.0329ZM33.7859 24.2599L33.7427 23.2592H32.744L32.7871 24.2599H33.7859ZM34.3867 24.2599L34.4533 25.804H36.4509L36.3843 24.2599H34.3867ZM36.259 26.4292C36.403 26.2385 36.6044 26.029 36.8758 25.8037L35.5606 24.2408C35.2042 24.5366 34.8949 24.8483 34.6452 25.1789L36.259 26.4292ZM36.8936 25.7885C37.1367 25.5763 37.4146 25.3964 37.7315 25.2502L36.8307 23.4261C36.357 23.6446 35.9264 23.9209 35.5427 24.2559L36.8936 25.7885ZM37.721 25.255C38.0089 25.1263 38.2994 25.0652 38.5999 25.0652L38.5136 23.0637C37.9299 23.0637 37.3699 23.185 36.8412 23.4213L37.721 25.255ZM38.5999 25.0652C39.1068 25.0652 39.5497 25.178 39.9485 25.3918L40.8322 23.6363C40.1128 23.2506 39.3333 23.0637 38.5136 23.0637L38.5999 25.0652ZM39.9652 25.4005C40.3258 25.5856 40.6378 25.877 40.8977 26.321L42.6116 25.3653C42.1696 24.6104 41.572 24.0158 40.8156 23.6275L39.9652 25.4005ZM40.9026 26.3291C41.139 26.7248 41.3058 27.2867 41.3397 28.0714H43.3372C43.2935 27.0579 43.0712 26.1343 42.6068 25.3571L40.9026 26.3291ZM41.3397 28.0714L41.5968 34.0329H43.5944L43.3372 28.0714H41.3397ZM42.5524 33.0321H40.9528L41.0392 35.0336H42.6388L42.5524 33.0321ZM41.9946 34.0295L41.7247 28.2244L39.7275 28.2311L39.9974 34.0362L41.9946 34.0295ZM41.7249 28.2277C41.6826 27.2485 41.4269 26.3343 40.8088 25.6433L39.345 26.9421C39.5195 27.1372 39.6965 27.513 39.7273 28.2277H41.7249ZM40.8205 25.6565C40.1751 24.9105 39.2658 24.6274 38.308 24.6274L38.3943 26.6289C38.971 26.6289 39.2123 26.7889 39.3334 26.9289L40.8205 25.6565ZM38.308 24.6274C37.5226 24.6274 36.8102 24.926 36.182 25.4139L37.4496 27.0151C37.8281 26.7211 38.1393 26.6289 38.3943 26.6289L38.308 24.6274ZM36.1852 25.4114C35.622 25.845 35.1296 26.3532 34.7092 26.9335L36.3451 28.1538C36.6611 27.7177 37.0278 27.3398 37.4464 27.0176L36.1852 25.4114ZM34.5284 27.5436L34.8083 34.0329H36.8058L36.5259 27.5436H34.5284ZM35.7639 33.0321H34.1643L34.2506 35.0336H35.8502L35.7639 33.0321ZM35.2062 34.0329L34.7847 24.2599H32.7871L33.2087 34.0329H35.2062ZM33.8291 25.2607H35.4287L35.3423 23.2592H33.7427L33.8291 25.2607ZM50.9227 24.4749L50.5314 25.3781L50.5439 25.3839L50.5565 25.3894L50.9227 24.4749ZM52.4719 25.5695L51.7541 26.2344L53.5842 28.2017L53.4707 25.5695H52.4719ZM52.4154 24.2599L52.3723 23.2592H51.3735L51.4167 24.2599H52.4154ZM54.015 24.2599H55.0138L54.9707 23.2592H53.9719L54.015 24.2599ZM54.4366 34.0329L54.4797 35.0336H55.4785L55.4354 34.0329H54.4366ZM52.837 34.0329H51.8382L51.8814 35.0336H52.8801L52.837 34.0329ZM52.7653 32.3715H53.7641L53.6185 28.9956L51.9044 31.8261L52.7653 32.3715ZM51.4393 33.7397L50.8493 32.907L50.841 32.9128L51.4393 33.7397ZM47.185 33.7006L46.6937 34.5502L46.7057 34.5573L47.185 33.7006ZM45.4502 31.9219L44.5896 32.3937L44.5965 32.4054L45.4502 31.9219ZM45.2166 26.5077L44.315 26.0367L44.3095 26.0483L45.2166 26.5077ZM46.8362 24.7095L47.3759 25.5746L47.3871 25.5676L46.8362 24.7095ZM46.704 27.5241L45.7876 27.0849L45.7837 27.0938L46.704 27.5241ZM46.8558 31.0424L45.977 31.4811L45.9817 31.4899L46.8558 31.0424ZM48.0021 32.2933L47.484 33.126L47.4948 33.1329L48.0021 32.2933ZM52.3162 31.0033L53.2288 31.4508L53.2326 31.4424L52.3162 31.0033ZM52.6254 29.1269L51.6271 29.1373L51.6276 29.1457L52.6254 29.1269ZM52.5249 27.2504L53.5232 27.24L53.5048 26.8966L53.2799 26.6277L52.5249 27.2504ZM51.1665 26.0581L50.6715 26.9055L50.6825 26.9121L51.1665 26.0581ZM49.251 25.0652C49.6425 25.0652 50.0661 25.1601 50.5314 25.3781L51.3139 23.5718C50.6112 23.2425 49.8915 23.0637 49.1646 23.0637L49.251 25.0652ZM50.5565 25.3894C51.0234 25.5934 51.4191 25.8743 51.7541 26.2344L53.1897 24.9046C52.6519 24.3265 52.0148 23.8776 51.2888 23.5604L50.5565 25.3894ZM53.4707 25.5695L53.4142 24.2599H51.4167L51.4732 25.5695H53.4707ZM52.4586 25.2607H54.0582L53.9719 23.2592H52.3723L52.4586 25.2607ZM53.0163 24.2599L53.4378 34.0329H55.4354L55.0138 24.2599H53.0163ZM54.3934 33.0321H52.7938L52.8801 35.0336H54.4797L54.3934 33.0321ZM53.8357 34.0329L53.7641 32.3715H51.7665L51.8382 34.0329H53.8357ZM51.9044 31.8261C51.6664 32.219 51.3226 32.5815 50.8494 32.907L52.0292 34.5724C52.6927 34.116 53.2329 33.5664 53.6263 32.9169L51.9044 31.8261ZM50.841 32.9128C50.4581 33.1824 50.0066 33.3253 49.4512 33.3253L49.5375 35.3268C50.4647 35.3268 51.3098 35.0789 52.0376 34.5665L50.841 32.9128ZM49.4512 33.3253C48.7944 33.3253 48.2061 33.1634 47.6643 32.8439L46.7057 34.5573C47.5784 35.0718 48.5297 35.3268 49.5375 35.3268L49.4512 33.3253ZM47.6763 32.8511C47.1263 32.517 46.6693 32.054 46.3038 31.4385L44.5965 32.4054C45.1285 33.3014 45.8281 34.0242 46.6937 34.5501L47.6763 32.8511ZM46.3107 31.4502C45.9708 30.8607 45.768 30.1543 45.7312 29.3028H43.7337C43.7824 30.4319 44.058 31.4716 44.5897 32.3937L46.3107 31.4502ZM45.7312 29.3028C45.6899 28.345 45.8351 27.578 46.1238 26.9671L44.3095 26.0483C43.8593 27.0011 43.6817 28.0974 43.7337 29.3028H45.7312ZM46.1182 26.9786C46.4261 26.3492 46.8457 25.8915 47.3758 25.5745L46.2966 23.8445C45.4321 24.3615 44.772 25.1026 44.3151 26.0368L46.1182 26.9786ZM47.3871 25.5676C47.9234 25.2366 48.5363 25.0652 49.251 25.0652L49.1646 23.0637C48.1106 23.0637 47.1425 23.3223 46.2853 23.8513L47.3871 25.5676ZM49.5247 24.6274C48.649 24.6274 47.85 24.8496 47.1823 25.3401L48.4096 26.9717C48.6999 26.7585 49.0821 26.6289 49.611 26.6289L49.5247 24.6274ZM47.1823 25.3401C46.5678 25.7914 46.1015 26.3785 45.7876 27.0849L47.6204 27.9633C47.8045 27.5491 48.0661 27.224 48.4096 26.9717L47.1823 25.3401ZM45.7837 27.0938C45.486 27.7827 45.3582 28.5235 45.3918 29.3028H47.3894C47.3679 28.805 47.449 28.3601 47.6243 27.9543L45.7837 27.0938ZM45.3918 29.3028C45.425 30.0721 45.6177 30.8031 45.977 31.4811L47.7345 30.6036C47.5276 30.2131 47.4101 29.7843 47.3894 29.3028H45.3918ZM45.9817 31.4899C46.3458 32.1614 46.8484 32.7133 47.484 33.126L48.5202 31.4606C48.1925 31.2478 47.9309 30.9657 47.7298 30.5948L45.9817 31.4899ZM47.4948 33.1329C48.1706 33.5601 48.9243 33.7631 49.7237 33.7631L49.6373 31.7616C49.1882 31.7616 48.8231 31.652 48.5095 31.4537L47.4948 33.1329ZM49.7237 33.7631C50.506 33.7631 51.2255 33.5554 51.8498 33.126L50.6699 31.4606C50.3849 31.6567 50.0515 31.7616 49.6373 31.7616L49.7237 33.7631ZM51.8498 33.126C52.4568 32.7085 52.9145 32.1402 53.2288 31.4508L51.4035 30.5557C51.2188 30.9609 50.9723 31.2526 50.6699 31.4606L51.8498 33.126ZM53.2326 31.4424C53.5514 30.7248 53.6747 29.9398 53.6231 29.108L51.6276 29.1457C51.6616 29.6951 51.5788 30.1611 51.3997 30.5641L53.2326 31.4424ZM53.6236 29.1164L53.5232 27.24L51.5267 27.2609L51.6271 29.1373L53.6236 29.1164ZM53.2799 26.6277C52.7916 26.044 52.2502 25.562 51.6505 25.2042L50.6825 26.9121C51.0439 27.1276 51.4081 27.4405 51.7699 27.8732L53.2799 26.6277ZM51.6615 25.2109C51.0124 24.8129 50.2891 24.6274 49.5247 24.6274L49.611 26.6289C50.0431 26.6289 50.3856 26.7301 50.6715 26.9054L51.6615 25.2109ZM63.0562 24.4749L62.665 25.3781L62.6774 25.3839L62.69 25.3894L63.0562 24.4749ZM64.6055 25.5695L63.8877 26.2344L65.7178 28.2017L65.6043 25.5695H64.6055ZM64.549 24.2599L64.5059 23.2592H63.5071L63.5503 24.2599H64.549ZM66.1486 24.2599H67.1474L67.1042 23.2592H66.1055L66.1486 24.2599ZM65.9842 36.7302L65.1092 36.209L65.9842 36.7302ZM60.1043 38.8021L60.3792 37.8527L60.3702 37.8497L60.3611 37.8469L60.1043 38.8021ZM59.0095 38.2939L59.5445 37.4724L59.5318 37.4638L59.519 37.4556L59.0095 38.2939ZM58.1658 37.7271H57.167L57.1888 38.2327L57.608 38.5327L58.1658 37.7271ZM58.0916 36.007L58.6474 35.2L57.0076 34.0321L57.0928 36.007H58.0916ZM58.876 36.5543L59.4245 35.7421L59.4181 35.7377L58.876 36.5543ZM60.0539 37.1798L59.7135 38.1052L59.723 38.1089L60.0539 37.1798ZM64.8989 32.3715H65.8977L65.7521 28.9956L64.038 31.8261L64.8989 32.3715ZM63.5729 33.7397L62.9829 32.907L62.9746 32.9128L63.5729 33.7397ZM59.3186 33.7006L58.8273 34.5502L58.8393 34.5573L59.3186 33.7006ZM57.5837 31.9219L56.7232 32.3937L56.7301 32.4054L57.5837 31.9219ZM57.3502 26.5077L56.4486 26.0367L56.4431 26.0483L57.3502 26.5077ZM58.9698 24.7095L59.5094 25.5746L59.5207 25.5676L58.9698 24.7095ZM59.9304 26.1754L60.53 27.0013L60.5371 26.9963L60.5441 26.9912L59.9304 26.1754ZM58.8376 27.5241L57.9212 27.0849L57.9173 27.0938L58.8376 27.5241ZM60.1349 32.2737L59.6167 33.1065L59.6276 33.1133L60.1349 32.2737ZM64.7589 29.1269L63.7606 29.1373L63.7612 29.1457L64.7589 29.1269ZM64.6585 27.2504L65.6568 27.24L65.6384 26.8966L65.4135 26.6277L64.6585 27.2504ZM63.3009 26.0777L62.806 26.925L62.8203 26.9338L62.835 26.9421L63.3009 26.0777ZM61.3846 25.0652C61.7761 25.0652 62.1997 25.1601 62.665 25.3781L63.4475 23.5718C62.7448 23.2425 62.0251 23.0637 61.2982 23.0637L61.3846 25.0652ZM62.69 25.3894C63.157 25.5934 63.5527 25.8743 63.8877 26.2344L65.3233 24.9046C64.7855 24.3265 64.1484 23.8776 63.4224 23.5604L62.69 25.3894ZM65.6043 25.5695L65.5478 24.2599H63.5503L63.6067 25.5695H65.6043ZM64.5922 25.2607H66.1918L66.1055 23.2592H64.5059L64.5922 25.2607ZM65.1499 24.2599L65.563 33.8374H67.5605L67.1474 24.2599H65.1499ZM65.563 33.8374C65.6073 34.8653 65.4332 35.6363 65.1092 36.209L66.8593 37.2515C67.4053 36.2865 67.6162 35.129 67.5605 33.8374H65.563ZM65.1092 36.209C64.7634 36.82 64.3005 37.2583 63.7122 37.5492L64.6592 39.3513C65.599 38.8865 66.335 38.1781 66.8593 37.2515L65.1092 36.209ZM63.7122 37.5492C63.0895 37.8572 62.3944 38.0163 61.6115 38.0163L61.6979 40.0178C62.7617 40.0178 63.7539 39.7991 64.6592 39.3513L63.7122 37.5492ZM61.6115 38.0163C61.0882 38.0163 60.6841 37.953 60.3792 37.8527L59.8295 39.7515C60.3953 39.9378 61.0248 40.0178 61.6979 40.0178L61.6115 38.0163ZM60.3611 37.8469C60.0189 37.7412 59.7516 37.6125 59.5445 37.4724L58.4746 39.1154C58.8837 39.3922 59.3462 39.6024 59.8476 39.7573L60.3611 37.8469ZM59.519 37.4556C59.2252 37.269 58.9603 37.0909 58.7235 36.9214L57.608 38.5327C57.8811 38.7281 58.1787 38.9279 58.5001 39.1321L59.519 37.4556ZM59.1645 37.7271L59.0903 36.007H57.0928L57.167 37.7271H59.1645ZM57.5357 36.814C57.7434 36.9619 58.0099 37.1478 58.3339 37.3709L59.4181 35.7377C59.0987 35.5177 58.8423 35.3388 58.6474 35.2L57.5357 36.814ZM58.3274 37.3664C58.7388 37.6543 59.2039 37.8986 59.7135 38.1051L60.3942 36.2544C60.0038 36.0961 59.6836 35.9234 59.4245 35.7422L58.3274 37.3664ZM59.723 38.1089C60.3218 38.3448 60.9619 38.4542 61.6304 38.4542L61.5441 36.4527C61.0942 36.4527 60.7121 36.3796 60.3847 36.2506L59.723 38.1089ZM61.6304 38.4542C62.3927 38.4542 63.1102 38.3132 63.7688 38.0179L62.8867 36.1853C62.4991 36.3591 62.0563 36.4527 61.5441 36.4527L61.6304 38.4542ZM63.7688 38.0179C64.4464 37.714 65.0006 37.2562 65.4084 36.6473L63.7327 35.484C63.5296 35.7873 63.2552 36.02 62.8867 36.1853L63.7688 38.0179ZM65.4084 36.6473C65.8429 35.9985 66.0214 35.2407 65.9862 34.4238H63.9886C64.0085 34.8839 63.9091 35.2206 63.7327 35.484L65.4084 36.6473ZM65.9862 34.4238L65.8977 32.3715H63.9001L63.9886 34.4238H65.9862ZM64.038 31.8261C63.8 32.219 63.4562 32.5815 62.9829 32.907L64.1628 34.5724C64.8263 34.116 65.3665 33.5664 65.7598 32.9169L64.038 31.8261ZM62.9746 32.9128C62.5917 33.1824 62.1402 33.3253 61.5848 33.3253L61.6711 35.3268C62.5983 35.3268 63.4434 35.0789 64.1712 34.5665L62.9746 32.9128ZM61.5848 33.3253C60.928 33.3253 60.3397 33.1634 59.7979 32.8439L58.8393 34.5573C59.712 35.0718 60.6633 35.3268 61.6711 35.3268L61.5848 33.3253ZM59.8099 32.8511C59.2599 32.517 58.8029 32.054 58.4374 31.4385L56.7301 32.4054C57.2621 33.3014 57.9617 34.0242 58.8273 34.5501L59.8099 32.8511ZM58.4443 31.4502C58.1044 30.8607 57.9016 30.1543 57.8648 29.3028H55.8673C55.916 30.4319 56.1916 31.4716 56.7232 32.3937L58.4443 31.4502ZM57.8648 29.3028C57.8235 28.345 57.9687 27.578 58.2574 26.9671L56.4431 26.0483C55.9929 27.0011 55.8153 28.0974 55.8673 29.3028H57.8648ZM58.2518 26.9786C58.5597 26.3492 58.9793 25.8915 59.5094 25.5745L58.4302 23.8445C57.5657 24.3615 56.9056 25.1026 56.4486 26.0368L58.2518 26.9786ZM59.5207 25.5676C60.057 25.2366 60.6699 25.0652 61.3846 25.0652L61.2982 23.0637C60.2442 23.0637 59.276 23.3223 58.4189 23.8513L59.5207 25.5676ZM61.6591 24.6469C60.7835 24.6469 59.9844 24.8692 59.3167 25.3596L60.5441 26.9912C60.8343 26.778 61.2166 26.6484 61.7455 26.6484L61.6591 24.6469ZM59.3308 25.3495C58.7071 25.79 58.2365 26.3753 57.9212 27.0849L59.754 27.9633C59.9366 27.5522 60.1945 27.2384 60.53 27.0013L59.3308 25.3495ZM57.9173 27.0938C57.6196 27.7827 57.4918 28.5235 57.5254 29.3028H59.523C59.5015 28.805 59.5826 28.3601 59.7579 27.9543L57.9173 27.0938ZM57.5254 29.3028C57.5586 30.072 57.7511 30.8001 58.1145 31.4704L59.8625 30.5753C59.6608 30.203 59.5437 29.7845 59.523 29.3028H57.5254ZM58.1145 31.4704C58.4786 32.1419 58.9812 32.6937 59.6168 33.1064L60.653 31.4411C60.3252 31.2283 60.0636 30.9462 59.8625 30.5753L58.1145 31.4704ZM59.6276 33.1133C60.3033 33.5405 61.057 33.7436 61.8564 33.7436L61.7701 31.7421C61.321 31.7421 60.9558 31.6324 60.6422 31.4342L59.6276 33.1133ZM61.8564 33.7436C62.6387 33.7436 63.3583 33.5358 63.9825 33.1064L62.8027 31.4411C62.5176 31.6372 62.1842 31.7421 61.7701 31.7421L61.8564 33.7436ZM63.9825 33.1064C64.5895 32.6889 65.0473 32.1206 65.3615 31.4313L63.5363 30.5362C63.3515 30.9414 63.1051 31.2331 62.8027 31.4411L63.9825 33.1064ZM65.3615 31.4313C65.6851 30.7216 65.8082 29.9392 65.7567 29.108L63.7612 29.1457C63.7952 29.6957 63.7117 30.1513 63.5363 30.5362L65.3615 31.4313ZM65.7572 29.1164L65.6568 27.24L63.6602 27.2609L63.7607 29.1373L65.7572 29.1164ZM65.4135 26.6277C64.9227 26.0409 64.3758 25.5604 63.7669 25.2133L62.835 26.9421C63.1861 27.1423 63.5442 27.4436 63.9035 27.8732L65.4135 26.6277ZM63.7959 25.2304C63.1468 24.8324 62.4235 24.6469 61.6591 24.6469L61.7455 26.6484C62.1775 26.6484 62.52 26.7496 62.806 26.925L63.7959 25.2304ZM77.5548 26.3904L76.6634 26.8045L76.6668 26.8114L76.6703 26.8181L77.5548 26.3904ZM78.2078 29.7719L78.251 30.7726H79.2498L79.2066 29.7719H78.2078ZM70.717 29.7719L70.6738 28.7711H69.5222L69.7344 29.9134L70.717 29.7719ZM71.3476 31.2769L70.5367 31.8265L71.3476 31.2769ZM72.5653 32.3715L72.1098 33.2418L72.119 33.2469L72.1283 33.2518L72.5653 32.3715ZM76.1878 32.2347L76.7227 33.1024L76.7294 33.0985L76.736 33.0944L76.1878 32.2347ZM77.6774 31.0424L78.6766 31.0536L78.5965 28.5438L76.9303 30.3457L77.6774 31.0424ZM77.7329 32.7819L78.5314 33.4181L78.7434 33.1459L78.7321 32.7932L77.7329 32.7819ZM76.944 33.4856L77.5339 34.3183L77.5405 34.3137L76.944 33.4856ZM75.7403 34.072L75.3835 33.1226L75.3677 33.1279L75.3521 33.1338L75.7403 34.072ZM69.7496 31.7656L68.8953 32.2478L68.9004 32.2566L68.9058 32.2652L69.7496 31.7656ZM69.4897 26.6445L68.5826 26.1852L69.4897 26.6445ZM71.0669 24.7681L70.4838 23.9308L70.477 23.9354L71.0669 24.7681ZM71.5881 26.4491L72.3332 27.148L72.3411 27.1392L71.5881 26.4491ZM70.697 28.4037L69.7051 28.2364L69.5579 29.4044H70.7402L70.697 28.4037ZM76.5687 28.4037L76.6119 29.4044H77.7178L77.558 28.3021L76.5687 28.4037ZM75.9551 26.84L75.1655 27.4192L75.172 27.4278L75.1787 27.4363L75.9551 26.84ZM74.8629 25.9409L74.4548 26.836L74.4664 26.8416L74.4781 26.847L74.8629 25.9409ZM73.5181 25.0652C74.3835 25.0652 75.0266 25.245 75.5046 25.5376L76.4932 23.8422C75.6087 23.3009 74.5692 23.0637 73.4318 23.0637L73.5181 25.0652ZM75.5046 25.5376C76.0149 25.85 76.3958 26.2658 76.6634 26.8045L78.4462 25.9763C78.0018 25.0817 77.3453 24.3638 76.4932 23.8422L75.5046 25.5376ZM76.6703 26.8181C76.9618 27.3842 77.1345 28.043 77.1678 28.8141H79.1653C79.121 27.787 78.8859 26.83 78.4393 25.9627L76.6703 26.8181ZM77.1678 28.8141L77.2091 29.7719H79.2066L79.1653 28.8141H77.1678ZM78.1647 28.7711H70.6738L70.7602 30.7726H78.251L78.1647 28.7711ZM69.7344 29.9134C69.8627 30.6044 70.1307 31.2458 70.5367 31.8265L72.1586 30.7273C71.927 30.3959 71.7746 30.0339 71.6996 29.6303L69.7344 29.9134ZM70.5367 31.8265C70.9496 32.4173 71.4781 32.8912 72.1098 33.2418L73.0208 31.5011C72.6665 31.3045 72.3833 31.0487 72.1586 30.7273L70.5367 31.8265ZM72.1283 33.2518C72.79 33.602 73.5171 33.7631 74.2834 33.7631L74.1971 31.7616C73.715 31.7616 73.3254 31.6622 73.0023 31.4911L72.1283 33.2518ZM74.2834 33.7631C75.161 33.7631 75.9796 33.541 76.7227 33.1024L75.6528 31.3669C75.2038 31.6319 74.7241 31.7616 74.1971 31.7616L74.2834 33.7631ZM76.736 33.0944C77.3916 32.6928 77.9586 32.2429 78.4245 31.739L76.9303 30.3457C76.601 30.7019 76.175 31.0468 75.6395 31.3749L76.736 33.0944ZM76.6782 31.0311L76.7337 32.7707L78.7321 32.7932L78.6766 31.0536L76.6782 31.0311ZM76.9345 32.1458C76.8414 32.2653 76.6607 32.4381 76.3474 32.6575L77.5405 34.3137C77.9342 34.038 78.2794 33.7416 78.5314 33.4181L76.9345 32.1458ZM76.354 32.6529C76.0957 32.8306 75.7756 32.9897 75.3835 33.1226L76.0971 35.0214C76.6279 34.8415 77.1103 34.6097 77.5339 34.3183L76.354 32.6529ZM75.3521 33.1338C75.0186 33.26 74.6584 33.3253 74.2646 33.3253L74.3509 35.3268C74.9714 35.3268 75.5663 35.2227 76.1285 35.0101L75.3521 33.1338ZM74.2646 33.3253C73.4409 33.3253 72.7382 33.132 72.1273 32.7681L71.1605 34.4767C72.1246 35.051 73.1978 35.3268 74.3509 35.3268L74.2646 33.3253ZM72.1273 32.7681C71.4841 32.385 70.9775 31.8871 70.5934 31.2659L68.9058 32.2652C69.4723 33.1816 70.2286 33.9216 71.1605 34.4767L72.1273 32.7681ZM70.6039 31.2833C70.2318 30.6548 70.0271 29.968 69.9942 29.205H67.9966C68.0435 30.2924 68.3416 31.3127 68.8953 32.2478L70.6039 31.2833ZM69.9942 29.205C69.9608 28.4313 70.098 27.7364 70.3969 27.1039L68.5826 26.1852C68.1426 27.1163 67.9502 28.1285 67.9966 29.205H69.9942ZM70.3969 27.1039C70.6981 26.4664 71.1173 25.9719 71.6568 25.6008L70.477 23.9354C69.6524 24.5026 69.0202 25.2589 68.5826 26.1852L70.3969 27.1039ZM71.65 25.6054C72.1766 25.25 72.7889 25.0652 73.5181 25.0652L73.4318 23.0637C72.3404 23.0637 71.3472 23.348 70.4838 23.9308L71.65 25.6054ZM73.4993 24.6274C72.4406 24.6274 71.525 24.9985 70.8351 25.7589L72.3411 27.1392C72.6443 26.805 73.0316 26.6289 73.5856 26.6289L73.4993 24.6274ZM70.843 25.7502C70.2041 26.4368 69.826 27.2766 69.7051 28.2364L71.689 28.5709C71.7618 27.9931 71.9778 27.5298 72.3331 27.1479L70.843 25.7502ZM70.7402 29.4044H76.6119L76.5256 27.4029H70.6538L70.7402 29.4044ZM77.558 28.3021C77.4465 27.5331 77.1886 26.8271 76.7315 26.2437L75.1787 27.4363C75.3546 27.6608 75.5058 27.9973 75.5795 28.5052L77.558 28.3021ZM76.7446 26.2608C76.3434 25.7269 75.8437 25.3091 75.2477 25.0347L74.4781 26.847C74.7313 26.9636 74.9597 27.1452 75.1655 27.4192L76.7446 26.2608ZM75.271 25.0458C74.7074 24.7694 74.113 24.6274 73.4993 24.6274L73.5856 26.6289C73.8822 26.6289 74.1681 26.6954 74.4548 26.836L75.271 25.0458ZM82.2032 24.2599H83.202L83.1588 23.2592H82.16L82.2032 24.2599ZM82.2572 25.5109H81.2584L81.3719 28.143L83.0323 26.1757L82.2572 25.5109ZM83.405 24.5336L83.9689 25.3835L83.9748 25.3797L83.405 24.5336ZM87.113 24.5727L86.6673 25.4483L86.6747 25.4523L86.6821 25.4562L87.113 24.5727ZM88.5816 26.0581L87.7038 26.4986L88.4416 27.8845L89.3766 26.6988L88.5816 26.0581ZM93.7235 24.514L93.2991 25.4009L93.3113 25.4072L93.3236 25.4131L93.7235 24.514ZM95.1854 25.8431L94.3459 26.3497L94.3529 26.3609L94.3601 26.3718L95.1854 25.8431ZM96.0848 34.0329L96.128 35.0336H97.1268L97.0836 34.0329H96.0848ZM94.4852 34.0329L93.4866 34.0362L93.5329 35.0336H94.5284L94.4852 34.0329ZM94.2153 28.2277L93.2165 28.2277L93.2167 28.2311L94.2153 28.2277ZM93.4686 26.2927L92.782 26.9897L92.7874 26.9951L92.7929 27.0003L93.4686 26.2927ZM89.0681 27.3873L88.2632 26.7595L88.0541 27.0343L88.0694 27.3873H89.0681ZM89.3548 34.0329L89.3979 35.0336H90.3967L90.3535 34.0329H89.3548ZM87.7552 34.0329L86.7565 34.0362L86.8029 35.0336H87.7983L87.7552 34.0329ZM87.4853 28.2277L86.4865 28.2277L86.4866 28.2311L87.4853 28.2277ZM86.7386 26.2927L86.0519 26.9897L86.0573 26.9951L86.0628 27.0003L86.7386 26.2927ZM83.4724 26.0972L82.8611 25.2796L82.85 25.2879L83.4724 26.0972ZM82.3313 27.2309L81.5329 26.5947L81.3171 26.8719L81.3326 27.2309H82.3313ZM82.6247 34.0329L82.6679 35.0336H83.6667L83.6235 34.0329H82.6247ZM81.0251 34.0329H80.0263L80.0695 35.0336H81.0683L81.0251 34.0329ZM80.6036 24.2599L80.5604 23.2592H79.5617L79.6048 24.2599H80.6036ZM81.2044 24.2599L81.2584 25.5109H83.2559L83.202 24.2599H81.2044ZM83.0323 26.1757C83.2576 25.9088 83.5643 25.6425 83.9689 25.3835L82.841 23.6836C82.3091 24.0241 81.8506 24.4092 81.482 24.846L83.0323 26.1757ZM83.9748 25.3797C84.2801 25.1811 84.6635 25.0652 85.164 25.0652L85.0777 23.0637C84.2518 23.0637 83.4912 23.2606 82.8351 23.6874L83.9748 25.3797ZM85.164 25.0652C85.6981 25.0652 86.1939 25.192 86.6673 25.4483L87.5587 23.697C86.7805 23.2757 85.9481 23.0637 85.0777 23.0637L85.164 25.0652ZM86.6821 25.4562C87.1045 25.6763 87.4436 26.0098 87.7038 26.4986L89.4595 25.6177C89.0121 24.7774 88.3721 24.1206 87.544 23.6891L86.6821 25.4562ZM89.3766 26.6988C89.7624 26.2095 90.1801 25.7977 90.6281 25.4585L89.3789 23.8432C88.7942 24.2858 88.264 24.8122 87.7867 25.4175L89.3766 26.6988ZM90.6281 25.4585C90.9648 25.2036 91.3724 25.0652 91.8941 25.0652L91.8078 23.0637C90.8989 23.0637 90.0749 23.3163 89.3789 23.8432L90.6281 25.4585ZM91.8941 25.0652C92.4007 25.0652 92.864 25.1781 93.2991 25.4009L94.1479 23.6271C93.4127 23.2505 92.6276 23.0637 91.8078 23.0637L91.8941 25.0652ZM93.3236 25.4131C93.7293 25.6077 94.0683 25.9084 94.3459 26.3497L96.0249 25.3366C95.5485 24.5791 94.9129 23.9937 94.1234 23.615L93.3236 25.4131ZM94.3601 26.3718C94.6168 26.7583 94.7958 27.3038 94.8289 28.0714H96.8265C96.782 27.0408 96.5328 26.1007 96.0106 25.3144L94.3601 26.3718ZM94.8289 28.0714L95.086 34.0329H97.0836L96.8265 28.0714H94.8289ZM96.0416 33.0321H94.442L94.5284 35.0336H96.128L96.0416 33.0321ZM95.4838 34.0295L95.2139 28.2244L93.2167 28.2311L93.4866 34.0362L95.4838 34.0295ZM95.2141 28.2277C95.1702 27.2113 94.8618 26.2742 94.1443 25.5851L92.7929 27.0003C92.9979 27.1973 93.1873 27.5502 93.2165 28.2277H95.2141ZM94.1552 25.5957C93.4646 24.9131 92.5691 24.6274 91.6021 24.6274L91.6884 26.6289C92.256 26.6289 92.576 26.7862 92.782 26.9897L94.1552 25.5957ZM91.6021 24.6274C90.8141 24.6274 90.1075 24.8824 89.5279 25.391L90.882 26.9207C91.1044 26.7257 91.358 26.6289 91.6884 26.6289L91.6021 24.6274ZM89.5279 25.391C89.0753 25.7881 88.6542 26.2456 88.2632 26.7595L89.873 28.0151C90.1958 27.5907 90.5327 27.2273 90.882 26.9207L89.5279 25.391ZM88.0694 27.3873L88.356 34.0329H90.3535L90.0669 27.3873H88.0694ZM89.3116 33.0321H87.712L87.7983 35.0336H89.3979L89.3116 33.0321ZM88.7538 34.0295L88.4839 28.2244L86.4866 28.2311L86.7565 34.0362L88.7538 34.0295ZM88.484 28.2277C88.4402 27.2113 88.1318 26.2742 87.4143 25.5851L86.0628 27.0003C86.2679 27.1973 86.4573 27.5502 86.4865 28.2277H88.484ZM87.4252 25.5957C86.7346 24.9131 85.839 24.6274 84.872 24.6274L84.9584 26.6289C85.526 26.6289 85.846 26.7862 86.0519 26.9897L87.4252 25.5957ZM84.872 24.6274C84.1293 24.6274 83.4506 24.8497 82.8612 25.2797L84.0836 26.9148C84.3516 26.7193 84.6347 26.6289 84.9584 26.6289L84.872 24.6274ZM82.85 25.2879C82.3633 25.6541 81.9248 26.0916 81.5329 26.5947L83.1298 27.8671C83.428 27.4842 83.7502 27.1658 84.0948 26.9066L82.85 25.2879ZM81.3326 27.2309L81.6259 34.0329H83.6235L83.3301 27.2309H81.3326ZM82.5816 33.0321H80.982L81.0683 35.0336H82.6679L82.5816 33.0321ZM82.0239 34.0329L81.6024 24.2599H79.6048L80.0263 34.0329H82.0239ZM80.6468 25.2607H82.2464L82.16 23.2592H80.5604L80.6468 25.2607ZM106.777 26.3904L105.885 26.8045L105.889 26.8114L105.892 26.8181L106.777 26.3904ZM107.43 29.7719L107.473 30.7726H108.472L108.429 29.7719H107.43ZM99.939 29.7719L99.8959 28.7711H98.7443L98.9564 29.9134L99.939 29.7719ZM100.57 31.2769L99.7587 31.8265L100.57 31.2769ZM101.787 32.3715L101.332 33.2418L101.341 33.2469L101.35 33.2518L101.787 32.3715ZM105.41 32.2347L105.945 33.1024L105.951 33.0985L105.958 33.0944L105.41 32.2347ZM106.899 31.0424L107.899 31.0536L107.819 28.5438L106.152 30.3457L106.899 31.0424ZM106.955 32.7819L107.753 33.4181L107.965 33.1459L107.954 32.7932L106.955 32.7819ZM106.166 33.4856L106.756 34.3183L106.763 34.3137L106.166 33.4856ZM104.962 34.072L104.606 33.1226L104.59 33.1279L104.574 33.1338L104.962 34.072ZM98.9716 31.7656L98.1173 32.2478L98.1225 32.2566L98.1278 32.2652L98.9716 31.7656ZM98.7117 26.6445L97.8046 26.1852L98.7117 26.6445ZM100.289 24.7681L99.7058 23.9308L99.699 23.9354L100.289 24.7681ZM100.81 26.4491L101.555 27.148L101.563 27.1392L100.81 26.4491ZM99.9191 28.4037L98.9271 28.2364L98.7799 29.4044H99.9622L99.9191 28.4037ZM105.791 28.4037L105.834 29.4044H106.94L106.78 28.3021L105.791 28.4037ZM105.177 26.84L104.388 27.4192L104.394 27.4278L104.401 27.4363L105.177 26.84ZM104.085 25.9409L103.677 26.836L103.688 26.8416L103.7 26.847L104.085 25.9409ZM102.74 25.0652C103.606 25.0652 104.249 25.245 104.727 25.5376L105.715 23.8422C104.831 23.3009 103.791 23.0637 102.654 23.0637L102.74 25.0652ZM104.727 25.5376C105.237 25.85 105.618 26.2658 105.885 26.8045L107.668 25.9763C107.224 25.0817 106.567 24.3638 105.715 23.8422L104.727 25.5376ZM105.892 26.8181C106.184 27.3842 106.357 28.043 106.39 28.8141H108.387C108.343 27.787 108.108 26.83 107.661 25.9627L105.892 26.8181ZM106.39 28.8141L106.431 29.7719H108.429L108.387 28.8141H106.39ZM107.387 28.7711H99.8959L99.9822 30.7726H107.473L107.387 28.7711ZM98.9564 29.9134C99.0847 30.6044 99.3528 31.2458 99.7587 31.8265L101.381 30.7273C101.149 30.3959 100.997 30.0339 100.922 29.6303L98.9564 29.9134ZM99.7587 31.8265C100.172 32.4173 100.7 32.8912 101.332 33.2418L102.243 31.5011C101.889 31.3045 101.605 31.0487 101.381 30.7273L99.7587 31.8265ZM101.35 33.2518C102.012 33.602 102.739 33.7631 103.505 33.7631L103.419 31.7616C102.937 31.7616 102.547 31.6622 102.224 31.4911L101.35 33.2518ZM103.505 33.7631C104.383 33.7631 105.202 33.541 105.945 33.1024L104.875 31.3669C104.426 31.6319 103.946 31.7616 103.419 31.7616L103.505 33.7631ZM105.958 33.0944C106.614 32.6928 107.181 32.2429 107.647 31.739L106.152 30.3457C105.823 30.7019 105.397 31.0468 104.862 31.3749L105.958 33.0944ZM105.9 31.0311L105.956 32.7707L107.954 32.7932L107.899 31.0536L105.9 31.0311ZM106.157 32.1458C106.063 32.2653 105.883 32.4381 105.569 32.6575L106.763 34.3137C107.156 34.038 107.501 33.7416 107.753 33.4181L106.157 32.1458ZM105.576 32.6529C105.318 32.8306 104.998 32.9897 104.606 33.1226L105.319 35.0214C105.85 34.8415 106.332 34.6097 106.756 34.3183L105.576 32.6529ZM104.574 33.1338C104.241 33.26 103.88 33.3253 103.487 33.3253L103.573 35.3268C104.193 35.3268 104.788 35.2227 105.351 35.0101L104.574 33.1338ZM103.487 33.3253C102.663 33.3253 101.96 33.132 101.349 32.7681L100.383 34.4767C101.347 35.051 102.42 35.3268 103.573 35.3268L103.487 33.3253ZM101.349 32.7681C100.706 32.385 100.2 31.8871 99.8155 31.2659L98.1278 32.2652C98.6944 33.1816 99.4507 33.9216 100.383 34.4767L101.349 32.7681ZM99.826 31.2833C99.4539 30.6548 99.2491 29.968 99.2162 29.205H97.2187C97.2656 30.2924 97.5636 31.3127 98.1173 32.2478L99.826 31.2833ZM99.2162 29.205C99.1829 28.4313 99.32 27.7364 99.6189 27.1039L97.8046 26.1852C97.3646 27.1163 97.1722 28.1285 97.2187 29.205H99.2162ZM99.6189 27.1039C99.9201 26.4664 100.339 25.9719 100.879 25.6008L99.699 23.9354C98.8745 24.5026 98.2422 25.2589 97.8046 26.1852L99.6189 27.1039ZM100.872 25.6054C101.399 25.25 102.011 25.0652 102.74 25.0652L102.654 23.0637C101.562 23.0637 100.569 23.348 99.7058 23.9308L100.872 25.6054ZM102.721 24.6274C101.663 24.6274 100.747 24.9985 100.057 25.7589L101.563 27.1392C101.866 26.805 102.254 26.6289 102.808 26.6289L102.721 24.6274ZM100.065 25.7502C99.4261 26.4368 99.0481 27.2766 98.9271 28.2364L100.911 28.5709C100.984 27.9931 101.2 27.5298 101.555 27.1479L100.065 25.7502ZM99.9622 29.4044H105.834L105.748 27.4029H99.8759L99.9622 29.4044ZM106.78 28.3021C106.669 27.5331 106.411 26.8271 105.954 26.2437L104.401 27.4363C104.577 27.6608 104.728 27.9973 104.802 28.5052L106.78 28.3021ZM105.967 26.2608C105.565 25.7269 105.066 25.3091 104.47 25.0347L103.7 26.847C103.953 26.9636 104.182 27.1452 104.388 27.4192L105.967 26.2608ZM104.493 25.0458C103.929 24.7694 103.335 24.6274 102.721 24.6274L102.808 26.6289C103.104 26.6289 103.39 26.6954 103.677 26.836L104.493 25.0458ZM111.425 24.2599H112.424L112.381 23.2592H111.382L111.425 24.2599ZM111.492 25.804H110.493L110.616 28.657L112.299 26.4292L111.492 25.804ZM112.258 25.0222L112.916 25.8037L112.925 25.7962L112.933 25.7885L112.258 25.0222ZM113.321 24.3381L112.881 23.4212L112.87 23.4261L113.321 24.3381ZM116.43 24.514L115.988 25.3918L115.997 25.3962L116.005 25.4005L116.43 24.514ZM117.794 25.8431L116.937 26.321L116.942 26.3291L117.794 25.8431ZM118.635 34.0329L118.678 35.0336H119.677L119.634 34.0329H118.635ZM117.036 34.0329L116.037 34.0362L116.083 35.0336H117.079L117.036 34.0329ZM116.766 28.2277L115.767 28.2277L115.767 28.2311L116.766 28.2277ZM116.117 26.2927L115.373 26.9289L115.379 26.9356L115.385 26.9421L116.117 26.2927ZM112.856 26.2145L113.486 27.0176L113.489 27.0151L112.856 26.2145ZM111.567 27.5436L110.749 26.9335L110.553 27.2033L110.568 27.5436H111.567ZM111.847 34.0329L111.89 35.0336H112.889L112.846 34.0329H111.847ZM110.247 34.0329H109.248L109.292 35.0336H110.29L110.247 34.0329ZM109.826 24.2599L109.782 23.2592H108.784L108.827 24.2599H109.826ZM110.426 24.2599L110.493 25.804H112.491L112.424 24.2599H110.426ZM112.299 26.4292C112.443 26.2385 112.644 26.029 112.916 25.8037L111.6 24.2408C111.244 24.5366 110.935 24.8483 110.685 25.1789L112.299 26.4292ZM112.933 25.7885C113.176 25.5763 113.454 25.3964 113.771 25.2502L112.87 23.4261C112.397 23.6446 111.966 23.9209 111.582 24.2559L112.933 25.7885ZM113.761 25.255C114.049 25.1263 114.339 25.0652 114.64 25.0652L114.553 23.0637C113.97 23.0637 113.41 23.185 112.881 23.4213L113.761 25.255ZM114.64 25.0652C115.146 25.0652 115.589 25.178 115.988 25.3918L116.872 23.6363C116.152 23.2506 115.373 23.0637 114.553 23.0637L114.64 25.0652ZM116.005 25.4005C116.366 25.5856 116.677 25.877 116.937 26.321L118.651 25.3653C118.209 24.6104 117.612 24.0158 116.855 23.6275L116.005 25.4005ZM116.942 26.3291C117.179 26.7248 117.346 27.2867 117.379 28.0714H119.377C119.333 27.0579 119.111 26.1343 118.647 25.3571L116.942 26.3291ZM117.379 28.0714L117.637 34.0329H119.634L119.377 28.0714H117.379ZM118.592 33.0321H116.993L117.079 35.0336H118.678L118.592 33.0321ZM118.034 34.0295L117.764 28.2244L115.767 28.2311L116.037 34.0362L118.034 34.0295ZM117.765 28.2277C117.722 27.2485 117.467 26.3343 116.849 25.6433L115.385 26.9421C115.559 27.1372 115.736 27.513 115.767 28.2277H117.765ZM116.86 25.6565C116.215 24.9105 115.306 24.6274 114.348 24.6274L114.434 26.6289C115.011 26.6289 115.252 26.7889 115.373 26.9289L116.86 25.6565ZM114.348 24.6274C113.562 24.6274 112.85 24.926 112.222 25.4139L113.489 27.0151C113.868 26.7211 114.179 26.6289 114.434 26.6289L114.348 24.6274ZM112.225 25.4114C111.662 25.845 111.169 26.3532 110.749 26.9335L112.385 28.1538C112.701 27.7177 113.068 27.3398 113.486 27.0176L112.225 25.4114ZM110.568 27.5436L110.848 34.0329H112.846L112.566 27.5436H110.568ZM111.804 33.0321H110.204L110.29 35.0336H111.89L111.804 33.0321ZM111.246 34.0329L110.824 24.2599H108.827L109.248 34.0329H111.246ZM109.869 25.2607H111.468L111.382 23.2592H109.782L109.869 25.2607ZM123.808 21.4453H124.807L124.764 20.4446H123.765L123.808 21.4453ZM123.929 24.2599H122.931L122.974 25.2607H123.973L123.929 24.2599ZM126.778 24.2599H127.776L127.733 23.2592H126.734L126.778 24.2599ZM126.842 25.765L126.886 26.7657H127.884L127.841 25.765H126.842ZM123.994 25.765L123.951 24.7642H122.952L122.996 25.765H123.994ZM126.535 32.6647L126.906 33.6092L126.926 33.602L126.946 33.5938L126.535 32.6647ZM127.204 32.3324H128.203L128.126 30.5649L126.653 31.4742L127.204 32.3324ZM127.26 33.642L127.918 34.4234L128.28 34.1229L128.259 33.642H127.26ZM126.442 34.1306L126.038 33.1987L126.014 33.2084L125.99 33.2196L126.442 34.1306ZM123.356 33.5833L122.611 34.2181L122.621 34.2289L122.63 34.2395L123.356 33.5833ZM122.395 25.765H123.394L123.35 24.7642H122.352L122.395 25.765ZM120.522 25.765H119.523L119.566 26.7657H120.565L120.522 25.765ZM120.502 25.2959L120.053 24.3829L119.475 24.6482L119.503 25.2959H120.502ZM122.041 23.8886L122.898 24.4398L122.903 24.4322L122.041 23.8886ZM123.067 21.4453L123.024 20.4446H122.307L122.107 21.125L123.067 21.4453ZM122.809 21.4453L122.931 24.2599H124.928L124.807 21.4453H122.809ZM123.973 25.2607H126.821L126.734 23.2592H123.886L123.973 25.2607ZM125.779 24.2599L125.844 25.765H127.841L127.776 24.2599H125.779ZM126.799 24.7642H123.951L124.038 26.7657H126.886L126.799 24.7642ZM122.996 25.765L123.243 31.4919H125.24L124.993 25.765H122.996ZM123.243 31.4919C123.267 32.0686 123.444 32.6491 123.877 33.1145L125.313 31.7848C125.309 31.7811 125.25 31.7231 125.24 31.4919H123.243ZM123.877 33.1145C124.36 33.6333 125.005 33.8022 125.609 33.8022L125.523 31.8007C125.396 31.8007 125.33 31.7831 125.305 31.7742C125.287 31.7675 125.298 31.7686 125.313 31.7848L123.877 33.1145ZM125.609 33.8022C126.069 33.8022 126.512 33.7496 126.906 33.6092L126.165 31.7201C126.046 31.7622 125.843 31.8007 125.523 31.8007L125.609 33.8022ZM126.946 33.5938C127.24 33.4741 127.511 33.3407 127.755 33.1905L126.653 31.4742C126.516 31.5586 126.342 31.6467 126.124 31.7355L126.946 33.5938ZM126.205 32.3324L126.261 33.642H128.259L128.203 32.3324H126.205ZM126.603 32.8605C126.425 33.0083 126.237 33.1195 126.038 33.1987L126.847 35.0625C127.236 34.9072 127.594 34.6926 127.918 34.4234L126.603 32.8605ZM125.99 33.2196C125.889 33.2666 125.662 33.3253 125.237 33.3253L125.324 35.3268C125.888 35.3268 126.435 35.2553 126.895 35.0417L125.99 33.2196ZM125.237 33.3253C124.61 33.3253 124.282 33.1467 124.082 32.9271L122.63 34.2395C123.332 35.0102 124.286 35.3268 125.324 35.3268L125.237 33.3253ZM124.101 32.9485C123.855 32.6629 123.673 32.2361 123.644 31.5701H121.646C121.69 32.572 121.982 33.4873 122.611 34.2181L124.101 32.9485ZM123.644 31.5701L123.394 25.765H121.396L121.646 31.5701H123.644ZM122.352 24.7642H120.479L120.565 26.7657H122.438L122.352 24.7642ZM121.521 25.765L121.501 25.2959H119.503L119.523 25.765H121.521ZM120.95 26.2088C121.764 25.8356 122.411 25.2309 122.898 24.4398L121.183 23.3373C120.868 23.8492 120.49 24.1828 120.053 24.3829L120.95 26.2088ZM122.903 24.4322C123.355 23.6814 123.726 22.7874 124.027 21.7656L122.107 21.125C121.84 22.0318 121.527 22.7665 121.179 23.3449L122.903 24.4322ZM123.11 22.4461H123.851L123.765 20.4446H123.024L123.11 22.4461Z" fill="black" fill-opacity="0.1"/>
</svg>
